<?xml version="1.0" encoding="UTF-8"?>
<svg version="1.1" xmlns="http://www.w3.org/2000/svg" width="500" height="500">
<path d="M0 0 C4.67314163 3.44545188 7.48911464 8.25250017 9.3046875 13.69921875 C9.3046875 16.66921875 9.3046875 19.63921875 9.3046875 22.69921875 C29.4346875 22.69921875 49.5646875 22.69921875 70.3046875 22.69921875 C70.3046875 20.05921875 70.3046875 17.41921875 70.3046875 14.69921875 C71.60452577 8.7613212 74.30338657 3.66035762 79.46875 0.28515625 C86.03705838 -3.35486604 91.31949907 -4.65426411 98.62109375 -2.671875 C104.69026319 -0.38181614 108.74538781 3.30971098 112.3046875 8.69921875 C114.20894026 13.50124746 114.3046875 16.39762298 114.3046875 21.69921875 C144.0046875 22.19421875 144.0046875 22.19421875 174.3046875 22.69921875 C174.3046875 19.72921875 174.3046875 16.75921875 174.3046875 13.69921875 C176.23088632 6.6235839 180.03421468 2.48330903 186.21875 -1.2421875 C192.03461118 -4.19368259 197.79335331 -4.08016083 203.9296875 -2.17578125 C209.33040465 0.82461716 214.62874229 4.30796332 216.8828125 10.35546875 C217.90495166 16.03401964 217.50436288 21.95300506 217.3046875 27.69921875 C217.93632812 27.77398437 218.56796875 27.84875 219.21875 27.92578125 C237.41204543 30.59972381 253.46553844 40.81379701 265.3046875 54.69921875 C276.55979478 69.87489178 280.93702351 86.5190723 282.9921875 105.01171875 C283.11158691 106.0699585 283.23098633 107.12819824 283.35400391 108.21850586 C285.55188548 130.00170695 285.47436533 152.00490507 285.5078125 173.875 C285.51063988 175.14675772 285.51346725 176.41851543 285.51638031 177.72881126 C285.52967735 183.74032095 285.53965675 189.7518091 285.5435822 195.76333076 C285.54810722 202.64605633 285.56592129 209.52858773 285.5945828 216.41125423 C285.61878137 222.43410171 285.62652385 228.4568565 285.62825775 234.47975731 C285.63128115 237.02389797 285.63929909 239.56803787 285.65244293 242.11214638 C285.6694427 245.6456382 285.66764142 249.17864243 285.66113281 252.7121582 C285.6703476 253.7567218 285.67956238 254.8012854 285.6890564 255.87750244 C285.6358385 265.07183181 285.6358385 265.07183181 282.3046875 268.69921875 C281.3146875 268.69921875 280.3246875 268.69921875 279.3046875 268.69921875 C279.20671875 268.1165625 279.10875 267.53390625 279.0078125 266.93359375 C276.20881037 251.58734069 270.92122637 237.58736242 258.3046875 227.69921875 C244.44529348 219.38040722 230.58041158 216.42258288 214.59765625 219.38671875 C201.62568141 223.07980767 190.90388856 230.10609293 184.0546875 241.88671875 C178.164774 253.81148529 176.71452933 264.64804824 176.6796875 277.69921875 C176.66325291 279.91450513 176.64114294 282.12938027 176.60806274 284.34448242 C176.57978687 286.33238284 176.56936514 288.32051403 176.56005859 290.30859375 C176.31016737 293.62646118 175.9427815 295.81357831 174.3046875 298.69921875 C170.930017 301.30347715 167.24751271 300.96819742 163.1171875 301.0078125 C161.68098614 301.03300774 160.24478832 301.05840516 158.80859375 301.08398438 C156.5688603 301.11247414 154.32918951 301.13651083 152.08935547 301.15551758 C135.6585153 301.32183643 120.50166658 303.7370084 107.9296875 315.38671875 C98.0655442 326.16845678 93.32312105 339.2104454 93.3046875 353.69921875 C94.35057226 368.34160543 100.45245048 380.28445653 110.9296875 390.38671875 C124.44712357 401.67312168 140.34120941 402.02270046 156.97094727 402.15551758 C159.24532257 402.17715113 161.51887758 402.2165352 163.79296875 402.2578125 C164.48779861 402.25792831 165.18262848 402.25804413 165.89851379 402.25816345 C168.89664956 402.31956086 171.04449301 402.56111166 173.71166992 403.97680664 C177.2759307 407.83057826 176.4971658 413.32933074 176.54296875 418.296875 C176.5510405 419.1275499 176.55911224 419.95822479 176.56742859 420.81407166 C176.58123094 422.56653781 176.59197023 424.31903042 176.59985352 426.0715332 C176.61142156 427.86686046 176.6319487 429.66215206 176.66137695 431.45727539 C176.70387867 434.04987985 176.72019323 436.64146629 176.73046875 439.234375 C176.74797684 440.03754654 176.76548492 440.84071808 176.78352356 441.66822815 C176.7746582 443.93383789 176.7746582 443.93383789 176.3046875 447.69921875 C169.79725015 454.09849142 156.58377706 451.84316041 148.12353516 451.82861328 C146.21590141 451.83124176 146.21590141 451.83124176 144.26972961 451.83392334 C140.80779057 451.83844696 137.34588164 451.83672693 133.88394213 451.83354425 C130.22067219 451.83098442 126.55740457 451.83336907 122.89413452 451.83493042 C116.72596789 451.83674578 110.55781325 451.83436679 104.38964844 451.82958984 C97.3400759 451.824192 90.2905325 451.82587951 83.24096072 451.83141625 C77.12908105 451.83601819 71.01720995 451.83656274 64.90532911 451.83397758 C61.28224488 451.83244741 57.65917412 451.83212721 54.03609085 451.83551407 C-48.79158101 451.91824189 -48.79158101 451.91824189 -76.5703125 425.38671875 C-81.44175758 420.26000144 -85.29907211 414.89291335 -88.6953125 408.69921875 C-89.25798828 407.69761719 -89.25798828 407.69761719 -89.83203125 406.67578125 C-106.68108968 372.97766439 -101.85494745 328.05331225 -101.829638 291.46882606 C-101.82705987 286.55643142 -101.82946691 281.64403841 -101.83102417 276.73164368 C-101.83283077 268.48751484 -101.83048011 260.24339503 -101.82568359 251.99926758 C-101.82024937 242.55169947 -101.8220037 233.10415298 -101.82751 223.6565854 C-101.83209111 215.45949551 -101.83266739 207.26241202 -101.83007133 199.06532127 C-101.82853502 194.20726247 -101.82823998 189.34921372 -101.83160782 184.49115562 C-101.84193655 167.13706853 -101.84309505 149.79067966 -101.26123047 132.44458008 C-101.22407991 131.33291568 -101.18692936 130.22125128 -101.14865303 129.07590008 C-100.08412088 101.61861699 -97.28297371 73.23224812 -78.6953125 51.69921875 C-78.12425781 51.03277344 -77.55320312 50.36632812 -76.96484375 49.6796875 C-65.9422785 37.76403594 -49.81417658 29.52948977 -33.6953125 27.69921875 C-33.74171875 26.70921875 -33.788125 25.71921875 -33.8359375 24.69921875 C-34.11939609 16.18791644 -34.12766791 9.47500121 -28.08203125 2.9609375 C-19.71221273 -4.81501363 -9.85632151 -5.35803148 0 0 Z " fill="#BABABA" transform="translate(134.6953125,23.30078125)"/>
<path d="M0 0 C4.22268864 4.07707869 6.78869483 8.23701261 7.24050903 14.14485168 C7.23606781 15.32399643 7.23162659 16.50314117 7.22705078 17.71801758 C7.22734283 18.37223694 7.22763489 19.0264563 7.22793579 19.70050049 C7.22654982 21.84864879 7.21102371 23.99644404 7.1953125 26.14453125 C7.19157975 27.6395397 7.18873402 29.1345506 7.18673706 30.62956238 C7.17912118 34.55377014 7.15949041 38.47782855 7.1373291 42.40197754 C7.11682649 46.4105426 7.10772592 50.41913193 7.09765625 54.42773438 C7.07624245 62.28522459 7.04213138 70.14259369 7 78 C7.79656006 77.99333817 8.59312012 77.98667633 9.41381836 77.97981262 C16.94597381 77.91952935 24.47801113 77.87393855 32.01034546 77.84456348 C35.88216502 77.82895341 39.75378408 77.80780125 43.62548828 77.77368164 C47.36672925 77.74092066 51.10777819 77.723112 54.84915161 77.71536827 C56.27160664 77.70985462 57.69405199 77.69908817 59.11642456 77.68280983 C69.28544045 77.5711318 77.68572501 77.92940053 85.453125 85.14453125 C89.59979363 90.11843933 91.39193286 95.75000277 91 102.1875 C89.83280333 109.49964384 86.53530631 113.91189636 81.07421875 118.73828125 C76.16636276 121.72366258 70.87142767 122.24901141 65.23852539 122.22705078 C63.93770523 122.22689972 62.63688507 122.22674866 61.29664612 122.22659302 C59.89698123 122.21638281 58.49731795 122.20595087 57.09765625 122.1953125 C55.65034685 122.19157733 54.20303489 122.18873274 52.75572205 122.18673706 C48.96634813 122.17914024 45.17713015 122.15952625 41.38781738 122.1373291 C37.51312366 122.11678503 33.63840449 122.10771712 29.76367188 122.09765625 C22.17571055 122.07627617 14.58787721 122.04218862 7 122 C7.01110306 122.83414429 7.02220612 123.66828857 7.03364563 124.52770996 C7.13409302 132.41298074 7.21008894 140.29803469 7.25906086 148.18379974 C7.28508507 152.23739557 7.3203496 156.29045997 7.37719727 160.34375 C7.43177649 164.26008784 7.46147445 168.17591659 7.47438622 172.09260559 C7.48358 173.58209745 7.50153338 175.07156342 7.52865028 176.56083679 C7.79383966 191.7374503 7.79383966 191.7374503 2 198 C-2.74014427 202.82413716 -7.07950904 205.05633936 -13.8125 205.375 C-20.40668367 205.2278084 -24.72680113 202.85988999 -29.75 198.75 C-36.51870676 190.47713618 -36.54426205 183.00927424 -36.390625 172.78125 C-36.3831527 171.31295547 -36.37746445 169.84465089 -36.37347412 168.37634277 C-36.35829529 164.53580569 -36.31908244 160.69588609 -36.2746582 156.85559082 C-36.23353653 152.92724965 -36.21542728 148.99880746 -36.1953125 145.0703125 C-36.15257887 137.37992865 -36.08442401 129.69005127 -36 122 C-37.17271706 122.00999275 -37.17271706 122.00999275 -38.36912537 122.02018738 C-45.7685236 122.08051704 -53.16780109 122.12608475 -60.56738186 122.15543652 C-64.37079372 122.17103429 -68.17400085 122.19216348 -71.97729492 122.22631836 C-75.65370229 122.25912385 -79.32991383 122.2768972 -83.00645638 122.28463173 C-84.40296571 122.29013751 -85.79946539 122.30088814 -87.19589043 122.31719017 C-96.25903274 122.41870236 -104.0461532 122.19247905 -111.8125 117.1875 C-116.9080577 112.0919423 -119.13896081 107.44587395 -119.3125 100.3125 C-119.23738693 94.65170589 -118.57207357 90.48260212 -115 86 C-108.72188889 79.8989289 -102.08506312 77.73827698 -93.33032227 77.77294922 C-92.04952286 77.77310028 -90.76872345 77.77325134 -89.44911194 77.77340698 C-88.07154175 77.78361711 -86.69397319 77.79404904 -85.31640625 77.8046875 C-83.89151712 77.80842279 -82.46662541 77.81126733 -81.04173279 77.81326294 C-77.31154145 77.82085879 -73.5815086 77.84047191 -69.85137939 77.8626709 C-66.0370091 77.88321709 -62.22261293 77.89228333 -58.40820312 77.90234375 C-50.93873024 77.92372212 -43.46938742 77.95780845 -36 78 C-36.01110306 77.19535309 -36.02220612 76.39070618 -36.03364563 75.56167603 C-36.13424284 67.94188205 -36.2101637 60.32241453 -36.25906086 52.70212746 C-36.28504559 48.78534005 -36.32023604 44.86910584 -36.37719727 40.95263672 C-36.43191985 37.16596493 -36.46150398 33.37982187 -36.47438622 29.59278488 C-36.48355468 28.15518252 -36.50145721 26.71760587 -36.52865028 25.28023148 C-36.6873501 16.53601946 -36.13312651 9.38999778 -31 2 C-22.22885098 -6.80165737 -9.83415192 -6.99737733 0 0 Z " fill="#161516" transform="translate(376,275)"/>
<path d="M0 0 C0.70760572 -0.00508782 1.41521144 -0.01017564 2.14425975 -0.01541764 C4.51542685 -0.031114 6.88656352 -0.03965972 9.25776672 -0.04811096 C10.95801994 -0.05765168 12.65827122 -0.06754294 14.35852051 -0.07775879 C19.94250695 -0.10911788 25.52650817 -0.12940726 31.11054993 -0.14796448 C32.0611845 -0.1512618 33.01181908 -0.15455912 33.99126077 -0.15795636 C42.95962542 -0.18873515 51.92799349 -0.21543719 60.89639568 -0.23237514 C72.35911157 -0.25427955 83.82135896 -0.29625252 95.28388757 -0.36581272 C103.34858302 -0.41308798 111.41315221 -0.43731337 119.47798187 -0.44457203 C124.29235811 -0.44952275 129.10620599 -0.46454855 133.92043114 -0.50431633 C138.45225088 -0.54125872 142.98324215 -0.54956764 147.5151844 -0.5363102 C149.17398777 -0.53636402 150.83282858 -0.54660879 152.49149323 -0.56806183 C160.67884217 -0.66825449 167.55511794 -0.73307625 174.40499592 4.38435268 C177.92496547 8.36975489 178.43181849 12.76477518 178.27851868 17.88328552 C177.76503213 21.72126828 176.48011586 24.24466566 173.97383118 27.16062927 C166.34486929 32.49077588 158.02004957 31.72556935 149.09638977 31.6782074 C147.38082283 31.68363286 145.66526055 31.6907579 143.94970703 31.69944763 C139.30724701 31.71763076 134.66514389 31.71063496 130.0226779 31.69793129 C125.15812968 31.68778088 120.29361135 31.69720233 115.42906189 31.70347595 C107.26326528 31.71074503 99.09761358 31.70118262 90.93183899 31.68211365 C81.495439 31.66033175 72.05938454 31.66740881 62.62299287 31.68941927 C54.51322073 31.70757695 46.40355252 31.71013023 38.29376662 31.69966459 C33.45344543 31.69343357 28.61328663 31.69258359 23.77297592 31.70581055 C19.22394709 31.7173743 14.6753636 31.70933381 10.12638283 31.68623352 C8.45829444 31.68094985 6.79016849 31.68245438 5.12209511 31.69128418 C2.84262678 31.70223702 0.56458008 31.68848145 -1.71479797 31.66856384 C-3.62668128 31.66630169 -3.62668128 31.66630169 -5.57718849 31.66399384 C-11.08330201 30.8603991 -14.08925839 28.39340616 -17.40116882 24.03562927 C-19.68804247 19.56757783 -19.8344934 15.05907619 -19.02616882 10.16062927 C-16.79812977 5.78412399 -14.13369677 2.2005725 -9.34030437 0.59644985 C-6.20462142 0.00590745 -3.19144259 0.01729727 0 0 Z " fill="#111111" transform="translate(147.0261688232422,171.83937072753906)"/>
<path d="M0 0 C0.90646774 -0.00861557 1.81293549 -0.01723114 2.74687195 -0.02610779 C5.73266445 -0.04874417 8.71751656 -0.0420329 11.70336914 -0.03295898 C13.78553038 -0.03819575 15.86768923 -0.04447243 17.94984436 -0.05174255 C22.31010108 -0.06214261 26.67003136 -0.05759106 31.03027344 -0.04296875 C36.61014549 -0.02578552 42.18898736 -0.04927308 47.76874447 -0.08445835 C52.06770108 -0.10644909 56.36641187 -0.10498669 60.66540718 -0.09669304 C62.72224622 -0.09587437 64.77910345 -0.10272157 66.83588982 -0.11746407 C69.71545058 -0.13493981 72.59316864 -0.12034195 75.47265625 -0.09765625 C76.73922058 -0.11519455 76.73922058 -0.11519455 78.03137207 -0.13308716 C83.8280406 -0.04045871 87.65717131 1.38203285 91.80102539 5.53344727 C94.6508266 10.40568804 95.77333307 14.98364614 94.80102539 20.53344727 C92.83772578 25.99075466 89.89069899 28.70285612 84.80102539 31.53344727 C81.81873122 32.08769628 78.90398875 32.06085304 75.87744141 32.01928711 C75.00023437 32.0230838 74.12302734 32.02688049 73.21923828 32.03079224 C70.33076774 32.03817789 67.44331222 32.01684135 64.55493164 31.99438477 C62.54003518 31.99199881 60.52513646 31.99109534 58.51023865 31.99160767 C54.29118888 31.98848293 50.07247971 31.97194403 45.85351562 31.94506836 C40.45553442 31.91111112 35.05792754 31.90343946 29.65985203 31.90495872 C25.49989778 31.90441382 21.34002475 31.89342693 17.18009758 31.87895584 C15.19026237 31.8726079 13.20041798 31.86865365 11.2105732 31.86716843 C8.42489209 31.86281284 5.63960067 31.84526283 2.85400391 31.82397461 C2.0376799 31.82488098 1.2213559 31.82578735 0.3802948 31.82672119 C-4.93068866 31.76762887 -10.63343086 31.59853741 -14.94116211 28.13110352 C-19.22780276 22.32196635 -19.98349359 17.61621724 -19.19897461 10.53344727 C-15.06031333 1.93776615 -8.86792556 -0.06837308 0 0 Z " fill="#131313" transform="translate(147.198974609375,275.466552734375)"/>
<path d="M0 0 C6.62813345 3.68229636 11.19015073 7.36272837 13.375 14.875 C13.8476691 18.84928179 13.8903418 22.80133417 13.9140625 26.80078125 C13.92641937 27.94355026 13.93877625 29.08631927 13.95150757 30.26371765 C13.97102485 32.67502752 13.98229724 35.08641649 13.98583984 37.49780273 C13.99991717 41.16591751 14.06729435 44.83061685 14.13671875 48.49804688 C14.14911978 50.84894329 14.15833804 53.19985909 14.1640625 55.55078125 C14.20413925 57.17938835 14.20413925 57.17938835 14.24502563 58.84089661 C14.17492991 66.78704483 11.95821537 72.11959431 6.375 77.875 C5.385 78.205 4.395 78.535 3.375 78.875 C3.045 79.865 2.715 80.855 2.375 81.875 C-3.62362118 83.87454039 -11.2149733 84.12968158 -17.18359375 81.93359375 C-23.25386347 78.27307193 -26.84488555 73.76653167 -28.625 66.875 C-28.91425423 63.12673936 -28.90528718 59.39074416 -28.890625 55.6328125 C-28.89253845 54.55047333 -28.8944519 53.46813416 -28.89642334 52.35299683 C-28.89778141 50.06849942 -28.89411143 47.7839942 -28.88574219 45.49951172 C-28.87505841 42.01902746 -28.88563985 38.5390618 -28.8984375 35.05859375 C-28.89711543 32.8333322 -28.89455206 30.60807098 -28.890625 28.3828125 C-28.89467346 27.34923615 -28.89872192 26.31565979 -28.90289307 25.25076294 C-28.85918517 18.44901895 -28.51050769 12.25320128 -25.125 6.1875 C-17.70278593 -0.67804801 -9.62508204 -2.98709442 0 0 Z " fill="#151515" transform="translate(338.625,21.125)"/>
<path d="M0 0 C4.0994761 2.8474546 6.67955819 6.05743391 7.77587891 10.95751953 C8.42291308 15.99099449 8.44131478 20.98027602 8.4765625 26.05078125 C8.48463425 27.15768814 8.49270599 28.26459503 8.50102234 29.40504456 C8.51481938 31.74079847 8.52556101 34.07657217 8.53344727 36.41235352 C8.54499488 38.79717936 8.5654901 41.18197881 8.5949707 43.56665039 C8.63763838 47.01987194 8.65381272 50.47232887 8.6640625 53.92578125 C8.68157059 54.98639267 8.69907867 56.04700409 8.71711731 57.13975525 C8.69540399 64.57030602 7.51989476 68.94844126 2.421875 74.55078125 C1.84566406 75.02644531 1.26945312 75.50210938 0.67578125 75.9921875 C-0.19240234 76.73275391 -0.19240234 76.73275391 -1.078125 77.48828125 C-2.76171875 78.5546875 -2.76171875 78.5546875 -5.76171875 78.5546875 C-5.76171875 79.2146875 -5.76171875 79.8746875 -5.76171875 80.5546875 C-18.26092113 81.17108652 -18.26092113 81.17108652 -23.26171875 79.1171875 C-29.83475537 72.37982496 -32.86093189 66.32935644 -33.078125 56.94921875 C-33.0989061 56.19235275 -33.11968719 55.43548676 -33.14109802 54.65568542 C-33.18436525 53.04598569 -33.22540683 51.43622485 -33.2644043 49.82641602 C-33.32290446 47.42122356 -33.38833526 45.01630435 -33.45507812 42.61132812 C-33.58076622 37.92614501 -33.67895895 33.24081389 -33.76171875 28.5546875 C-33.7760495 27.79196533 -33.79038025 27.02924316 -33.80514526 26.2434082 C-33.8421725 24.05158412 -33.86674446 21.86000769 -33.88671875 19.66796875 C-33.90798828 17.77558472 -33.90798828 17.77558472 -33.9296875 15.8449707 C-33.59687993 9.32571549 -31.05561876 5.52766534 -26.38671875 1.1796875 C-18.04664102 -5.32274599 -8.9814003 -4.94465895 0 0 Z " fill="#141414" transform="translate(134.76171875,23.4453125)"/>
<path d="M0 0 C4.06847605 2.02355026 7.87416407 4.45624583 10.3125 8.375 C11.675611 14.20774956 11.49228889 20.13479452 11.515625 26.08984375 C11.52132507 27.21894669 11.52702515 28.34804962 11.53289795 29.5113678 C11.54232332 31.89420643 11.54887211 34.27705796 11.55273438 36.65991211 C11.56245667 40.29629238 11.59351094 43.93211117 11.625 47.56835938 C11.63152914 49.88801749 11.63677996 52.20767963 11.640625 54.52734375 C11.6529718 55.60982895 11.6653186 56.69231415 11.67803955 57.80760193 C11.65381573 66.05024552 10.37028169 72.31721831 4.3125 78.375 C-2.03761098 82.37833084 -9.37193026 82.23170277 -16.6875 81.375 C-22.58630146 78.95189952 -25.5507679 75.95485981 -28.80522156 70.50238037 C-29.85236277 67.97747718 -29.98537279 66.00504787 -30.05395508 63.27441406 C-30.09828423 61.7519809 -30.09828423 61.7519809 -30.14350891 60.1987915 C-30.16447128 59.10709656 -30.18543365 58.01540161 -30.20703125 56.890625 C-30.23351242 55.76106384 -30.25999359 54.63150269 -30.28727722 53.4677124 C-30.33994972 51.07721185 -30.38753388 48.68659458 -30.43041992 46.29589844 C-30.4994823 42.65231261 -30.59550849 39.01009955 -30.69335938 35.3671875 C-30.74123517 33.04170009 -30.78751093 30.71617907 -30.83203125 28.390625 C-30.86311478 27.30702698 -30.8941983 26.22342896 -30.92622375 25.10699463 C-31.02746373 17.5641546 -29.95829641 12.28076982 -26.125 5.6875 C-18.54369169 -1.50502327 -9.73411164 -3.85783354 0 0 Z " fill="#121212" transform="translate(235.6875,21.625)"/>
<path d="M0 0 C0.66 0 1.32 0 2 0 C2.07010068 15.1685127 2.12299336 30.33701792 2.15543652 45.50565624 C2.17090127 52.54882919 2.1919832 59.59190145 2.22631836 66.63500977 C2.25942874 73.43012256 2.27684623 80.22513061 2.28463173 87.02031898 C2.29018109 89.614705 2.3010174 92.2090852 2.31719017 94.80342674 C2.33892031 98.433124 2.3419687 102.06238699 2.34057617 105.69213867 C2.35675491 107.30622871 2.35675491 107.30622871 2.3732605 108.95292664 C2.33391062 118.41188697 2.33391062 118.41188697 -1 122 C-1.99 122 -2.98 122 -4 122 C-5.35991738 115.67572401 -6.37679879 109.43974581 -7 103 C-6.34 103 -5.68 103 -5 103 C-4.67 106.3 -4.34 109.6 -4 113 C-3.01 113.33 -2.02 113.66 -1 114 C-0.67 76.38 -0.34 38.76 0 0 Z " fill="#AFADAE" transform="translate(418,170)"/>
<path d="M0 0 C0.66 0.33 1.32 0.66 2 1 C1.34 2.98 0.68 4.96 0 7 C-0.66 7 -1.32 7 -2 7 C-3.04126924 10.12380773 -3.15552332 12.38517854 -3.20532227 15.66479492 C-3.2352401 17.40626045 -3.2352401 17.40626045 -3.26576233 19.1829071 C-3.28247482 20.43610245 -3.29918732 21.68929779 -3.31640625 22.98046875 C-3.33718735 24.26359451 -3.35796844 25.54672028 -3.37937927 26.86872864 C-3.43451906 30.27662815 -3.48396389 33.68458741 -3.53222656 37.09259033 C-3.58250079 40.57154648 -3.63815591 44.05041607 -3.69335938 47.52929688 C-3.80084189 54.35278951 -3.90230877 61.17636036 -4 68 C-4.33 68 -4.66 68 -5 68 C-5.11625699 60.31533361 -5.20489817 52.63075932 -5.25906086 44.94541168 C-5.28506727 41.37605043 -5.32029728 37.80729431 -5.37719727 34.23828125 C-5.43184284 30.78877383 -5.46148778 27.33984547 -5.47438622 23.88993835 C-5.48801305 21.94453817 -5.52699448 19.9993684 -5.56648254 18.05432129 C-5.56888435 10.41848898 -4.76740793 6.04421545 0 0 Z " fill="#1B1618" transform="translate(346,276)"/>
<path d="M0 0 C0.66 0 1.32 0 2 0 C2.15387701 13.69505348 1.6877034 27.32274995 1 41 C0.67 41 0.34 41 0 41 C-0.16721596 35.32186163 -0.32781538 29.64359025 -0.48217773 23.96508789 C-0.5356778 22.03176791 -0.59101308 20.09849784 -0.64819336 18.1652832 C-0.72988175 15.39285041 -0.80505352 12.62030742 -0.87890625 9.84765625 C-0.90594131 8.97786636 -0.93297638 8.10807648 -0.96083069 7.21192932 C-1.01278164 5.14189685 -1.01188571 3.07065016 -1 1 C-0.67 0.67 -0.34 0.34 0 0 Z " fill="#0B080B" transform="translate(381,306)"/>
<path d="M0 0 C4.49690588 1.7666416 6.82498651 4.8568416 9.109375 9.0234375 C10.43266914 13.44602581 10.20928876 17.72524623 10.125 22.3125 C10.11597656 23.24384766 10.10695313 24.17519531 10.09765625 25.13476562 C10.07418263 27.4234436 10.04134729 29.71158672 10 32 C9.67 32 9.34 32 9 32 C8.93941406 30.71222656 8.87882812 29.42445313 8.81640625 28.09765625 C8.73201753 26.41925841 8.6473687 24.74087364 8.5625 23.0625 C8.52318359 22.21236328 8.48386719 21.36222656 8.44335938 20.48632812 C8.38051758 19.27299805 8.38051758 19.27299805 8.31640625 18.03515625 C8.27974854 17.2862915 8.24309082 16.53742676 8.20532227 15.76586914 C8.18228937 13.97538674 8.18228937 13.97538674 7 13 C6.95936168 11.33382885 6.957279 9.66611905 7 8 C6.01 8 5.02 8 4 8 C2 5 2 5 2 2 C1.34 2 0.68 2 0 2 C0 1.34 0 0.68 0 0 Z M-2 2 C0 3 0 3 0 3 Z " fill="#353333" transform="translate(373,274)"/>
<path d="M0 0 C0.99 0.33 1.98 0.66 3 1 C2.56429687 1.43828125 2.12859375 1.8765625 1.6796875 2.328125 C-3.59972686 7.95035848 -6.81931001 14.00947255 -10 21 C-11.37095624 17.30962722 -10.60010967 15.29116165 -9.0625 11.75 C-8.68222656 10.85796875 -8.30195313 9.9659375 -7.91015625 9.046875 C-7.60980469 8.37140625 -7.30945313 7.6959375 -7 7 C-6.34 7 -5.68 7 -5 7 C-4.731875 6.21625 -4.46375 5.4325 -4.1875 4.625 C-3 2 -3 2 0 0 Z " fill="#CAC9C9" transform="translate(241,337)"/>
<path d="M0 0 C0.99 0 1.98 0 3 0 C3.33 1.98 3.66 3.96 4 6 C4.66 6 5.32 6 6 6 C6.33 7.32 6.66 8.64 7 10 C7.66 10 8.32 10 9 10 C9.33 11.98 9.66 13.96 10 16 C6.77518457 14.94141928 6.00725429 14.01279484 4.296875 10.99609375 C3.78640625 9.82175781 3.2759375 8.64742188 2.75 7.4375 C2.22921875 6.26058594 1.7084375 5.08367187 1.171875 3.87109375 C0 1 0 1 0 0 Z " fill="#C4C1C2" transform="translate(42,422)"/>
<path d="M0 0 C0.66 0 1.32 0 2 0 C3.19963643 2.43218059 4.38484438 4.86970578 5.5625 7.3125 C5.90474609 8.00279297 6.24699219 8.69308594 6.59960938 9.40429688 C9.11328125 14.66015625 9.11328125 14.66015625 8 18 C8 17.34 8 16.68 8 16 C7.34 16 6.68 16 6 16 C5.32880451 14.5437455 4.66318193 13.08492133 4 11.625 C3.62875 10.81289062 3.2575 10.00078125 2.875 9.1640625 C2 7 2 7 2 5 C1.01 4.67 0.02 4.34 -1 4 C-0.67 2.68 -0.34 1.36 0 0 Z " fill="#C7C4C5" transform="translate(403,85)"/>
<path d="M0 0 C-1.12732409 3.38197228 -2.14182373 4.24057814 -4.8125 6.5 C-5.49957031 7.0878125 -6.18664063 7.675625 -6.89453125 8.28125 C-8.89158044 9.91149424 -10.9250562 11.47060322 -13 13 C-11.46781315 9.36938333 -9.2816856 7.0136227 -6.5 4.25 C-5.7059375 3.45078125 -4.911875 2.6515625 -4.09375 1.828125 C-2 0 -2 0 0 0 Z " fill="#CACACA" transform="translate(66,67)"/>
<path d="M0 0 C0.66 0.33 1.32 0.66 2 1 C1.67 1.66 1.34 2.32 1 3 C0.34 3 -0.32 3 -1 3 C-0.67 3.99 -0.34 4.98 0 6 C-2.97 8.475 -2.97 8.475 -6 11 C-4.74194623 6.49197399 -3.09592835 3.5087188 0 0 Z " fill="#2E2E2F" transform="translate(212,25)"/>
<path d="M0 0 C0.33 0.99 0.66 1.98 1 3 C1.66 3 2.32 3 3 3 C3 4.98 3 6.96 3 9 C2.34 9 1.68 9 1 9 C0.67 9.99 0.34 10.98 0 12 C0 8.04 0 4.08 0 0 Z " fill="#1B1819" transform="translate(464,369)"/>
<path d="M0 0 C2.31 1.98 4.62 3.96 7 6 C5.02 6.99 5.02 6.99 3 8 C2.67 7.01 2.34 6.02 2 5 C0.50014391 3.33289654 0.50014391 3.33289654 -1 2 C-0.67 1.34 -0.34 0.68 0 0 Z " fill="#C8C8C8" transform="translate(238,407)"/>
<path d="M0 0 C0.66 0.33 1.32 0.66 2 1 C1.34 2.98 0.68 4.96 0 7 C-0.66 7 -1.32 7 -2 7 C-2.66 8.32 -3.32 9.64 -4 11 C-5 8 -5 8 -4.00390625 5.95703125 C-3.52824219 5.24933594 -3.05257813 4.54164063 -2.5625 3.8125 C-2.08941406 3.09707031 -1.61632812 2.38164062 -1.12890625 1.64453125 C-0.75636719 1.10183594 -0.38382812 0.55914062 0 0 Z " fill="#747474" transform="translate(346,276)"/>
<path d="M0 0 C0.66 0 1.32 0 2 0 C1.8125 1.875 1.8125 1.875 1 4 C-1.5625 5.25 -1.5625 5.25 -4 6 C-4 5.01 -4 4.02 -4 3 C-2.68 2.67 -1.36 2.34 0 2 C0 1.34 0 0.68 0 0 Z " fill="#2C2B2C" transform="translate(374,472)"/>
<path d="M0 0 C0.66 0.33 1.32 0.66 2 1 C-3.41538462 5.06153846 -3.41538462 5.06153846 -6.375 4.75 C-6.91125 4.5025 -7.4475 4.255 -8 4 C-5.31143836 2.20762558 -3.0466145 1.01553817 0 0 Z " fill="#C2C1C2" transform="translate(88,54)"/>
<path d="M0 0 C1.32 0 2.64 0 4 0 C4 0.66 4 1.32 4 2 C6.97 2.495 6.97 2.495 10 3 C10 3.33 10 3.66 10 4 C2.25 3.125 2.25 3.125 0 2 C0 1.34 0 0.68 0 0 Z " fill="#B2B1B2" transform="translate(82,462)"/>
<path d="M0 0 C0.66 0 1.32 0 2 0 C4.125 4.625 4.125 4.625 3 8 C0.9375 5.6875 0.9375 5.6875 -1 3 C-0.67 2.01 -0.34 1.02 0 0 Z " fill="#60575B" transform="translate(260,383)"/>
<path d="M0 0 C2.09350689 3.4019487 2.17942163 6.05272412 2 10 C1.34 9.67 0.68 9.34 0 9 C-1.28571429 2.57142857 -1.28571429 2.57142857 0 0 Z " fill="#B0ADAF" transform="translate(38,399)"/>
<path d="M0 0 C0.556875 0.226875 1.11375 0.45375 1.6875 0.6875 C-0.6225 2.0075 -2.9325 3.3275 -5.3125 4.6875 C-5.9725 4.0275 -6.6325 3.3675 -7.3125 2.6875 C-2.88173077 -0.38942308 -2.88173077 -0.38942308 0 0 Z " fill="#6B6567" transform="translate(356.3125,271.3125)"/>
<path d="M0 0 C0.99 0.66 1.98 1.32 3 2 C1.02 4.97 1.02 4.97 -1 8 C-1.66 7.01 -2.32 6.02 -3 5 C-2.01 4.67 -1.02 4.34 0 4 C-0.33 3.01 -0.66 2.02 -1 1 C-0.67 0.67 -0.34 0.34 0 0 Z " fill="#CAC9C9" transform="translate(318,260)"/>
<path d="" fill="#FFFFFF" transform="translate(0,0)"/>
<path d="" fill="#FFFFFF" transform="translate(0,0)"/>
<path d="" fill="#FFFFFF" transform="translate(0,0)"/>
<path d="" fill="#FFFFFF" transform="translate(0,0)"/>
<path d="" fill="#FFFFFF" transform="translate(0,0)"/>
<path d="" fill="#FFFFFF" transform="translate(0,0)"/>
<path d="" fill="#FFFFFF" transform="translate(0,0)"/>
<path d="" fill="#FFFFFF" transform="translate(0,0)"/>
<path d="" fill="#FFFFFF" transform="translate(0,0)"/>
<path d="" fill="#FFFFFF" transform="translate(0,0)"/>
<path d="" fill="#FFFFFF" transform="translate(0,0)"/>
<path d="" fill="#FFFFFF" transform="translate(0,0)"/>
<path d="" fill="#FFFFFF" transform="translate(0,0)"/>
<path d="" fill="#FFFFFF" transform="translate(0,0)"/>
<path d="" fill="#FFFFFF" transform="translate(0,0)"/>
<path d="" fill="#FFFFFF" transform="translate(0,0)"/>
<path d="" fill="#FFFFFF" transform="translate(0,0)"/>
<path d="" fill="#FFFFFF" transform="translate(0,0)"/>
<path d="" fill="#FFFFFF" transform="translate(0,0)"/>
<path d="" fill="#FFFFFF" transform="translate(0,0)"/>
<path d="" fill="#FFFFFF" transform="translate(0,0)"/>
<path d="" fill="#FFFFFF" transform="translate(0,0)"/>
<path d="" fill="#FFFFFF" transform="translate(0,0)"/>
<path d="" fill="#FFFFFF" transform="translate(0,0)"/>
<path d="" fill="#FFFFFF" transform="translate(0,0)"/>
<path d="" fill="#FFFFFF" transform="translate(0,0)"/>
<path d="" fill="#FFFFFF" transform="translate(0,0)"/>
<path d="" fill="#FFFFFF" transform="translate(0,0)"/>
<path d="" fill="#FFFFFF" transform="translate(0,0)"/>
<path d="" fill="#FFFFFF" transform="translate(0,0)"/>
<path d="" fill="#FFFFFF" transform="translate(0,0)"/>
<path d="" fill="#FFFFFF" transform="translate(0,0)"/>
<path d="" fill="#FFFFFF" transform="translate(0,0)"/>
<path d="" fill="#FFFFFF" transform="translate(0,0)"/>
<path d="" fill="#FFFFFF" transform="translate(0,0)"/>
<path d="" fill="#FFFFFF" transform="translate(0,0)"/>
<path d="" fill="#FFFFFF" transform="translate(0,0)"/>
<path d="" fill="#FFFFFF" transform="translate(0,0)"/>
<path d="" fill="#FFFFFF" transform="translate(0,0)"/>
<path d="" fill="#FFFFFF" transform="translate(0,0)"/>
</svg>
