<svg xmlns="http://www.w3.org/2000/svg" width="512" height="512" viewBox="0 0 512 512">
<g>
<path d="M 377.08 489.86 C374.98,490.49 371.97,491.00 370.38,490.99 C366.66,490.98 358.13,486.95 355.30,483.87 C350.22,478.34 350.00,476.53 350.00,440.03 L 350.00 406.00 L 317.66 406.00 C282.57,406.00 279.07,405.58 272.45,400.53 C261.36,392.07 262.07,374.81 273.83,366.54 L 278.17 363.50 L 313.83 363.00 L 349.50 362.50 L 350.00 327.00 C350.54,288.70 350.56,288.53 356.17,283.30 C363.84,276.13 377.93,276.17 385.85,283.37 C391.42,288.44 391.46,288.71 392.00,327.00 L 392.50 362.50 L 428.00 363.00 C466.29,363.54 466.56,363.58 471.63,369.15 C481.44,379.94 478.49,396.35 465.50,403.35 C461.66,405.41 460.11,405.51 426.75,405.81 L 392.00 406.12 L 391.98 440.31 C391.96,471.41 391.79,474.87 390.11,478.57 C387.89,483.45 382.30,488.29 377.08,489.86 ZM 325.53 205.53 L 321.32 208.00 L 143.50 207.97 L 139.59 205.73 C133.50,202.25 131.50,198.85 131.50,192.00 C131.50,184.92 133.60,181.53 140.02,178.25 L 144.42 176.00 L 232.46 176.02 C316.13,176.04 320.70,176.14 324.60,177.90 C335.53,182.87 336.09,199.35 325.53,205.53 ZM 238.98 312.75 C234.61,314.99 234.28,315.00 189.45,315.00 L 144.31 315.00 L 139.91 312.67 C128.59,306.70 128.08,292.58 138.92,285.27 L 142.30 283.00 L 189.25 283.00 C190.52,283.00 191.77,283.00 192.98,283.00 C231.89,283.00 239.39,283.00 243.02,286.74 C244.00,287.76 244.70,289.04 245.66,290.68 C247.79,294.32 248.16,295.97 247.76,300.12 C247.17,306.30 244.73,309.81 238.98,312.75 ZM 238.00 106.01 C229.14,108.48 220.00,104.93 214.39,96.84 L 211.50 92.68 L 211.19 65.72 L 210.88 38.77 L 213.54 33.33 C215.32,29.68 217.54,27.01 220.28,25.20 C223.88,22.81 225.32,22.50 232.60,22.50 C241.76,22.50 243.81,23.45 249.33,30.27 C251.95,33.51 252.38,35.03 253.23,44.20 C253.75,49.87 254.00,62.60 253.79,72.50 C253.45,88.60 253.18,90.94 251.23,94.65 C248.60,99.67 242.76,104.69 238.00,106.01 ZM 131.50 105.88 C126.99,107.13 124.63,107.17 120.99,106.07 C114.56,104.11 108.98,99.65 105.87,94.00 C104.84,92.12 104.42,85.32 104.17,66.64 C103.81,39.19 104.54,34.30 109.83,28.66 C119.38,18.49 136.43,19.89 143.49,31.42 L 146.50 36.34 L 146.80 61.63 C147.00,78.51 146.71,88.36 145.94,91.21 C144.44,96.80 136.99,104.36 131.50,105.88 ZM 349.34 103.75 C338.33,109.84 325.39,105.72 319.62,94.30 C318.25,91.59 318.00,87.01 318.00,64.52 C318.00,36.09 318.38,33.48 323.30,28.13 C331.17,19.57 347.79,20.02 355.35,29.00 C359.75,34.24 360.15,37.56 359.81,66.17 L 359.50 92.83 L 356.46 97.17 C354.78,99.55 351.58,102.51 349.34,103.75 Z" fill="rgb(17,17,17)"/>
<path d="M 238.00 106.01 C242.76,104.69 248.60,99.67 251.23,94.65 C253.18,90.94 253.45,88.60 253.79,72.50 C254.00,62.60 253.75,49.87 253.23,44.20 C252.86,40.24 252.57,37.71 252.15,35.85 C253.32,38.78 254.00,41.90 254.00,44.91 L 254.00 47.94 L 284.75 48.22 C301.66,48.37 316.06,48.34 316.75,48.14 C317.53,47.92 318.00,45.94 318.00,42.86 C318.00,39.70 318.53,36.82 319.53,34.27 C318.15,38.81 318.00,46.45 318.00,64.52 C318.00,87.01 318.25,91.59 319.62,94.30 C325.39,105.72 338.33,109.84 349.34,103.75 C351.58,102.51 354.78,99.55 356.46,97.17 L 359.50 92.83 L 359.81 66.17 C360.00,50.27 359.96,42.18 359.13,37.23 C359.71,39.69 360.00,42.42 360.00,45.43 L 360.00 52.92 L 364.25 54.02 C390.33,60.72 407.40,74.29 417.48,96.33 C423.33,109.09 426.22,122.79 427.98,146.00 C429.49,166.03 429.34,295.26 427.80,296.80 C425.34,299.26 424.33,297.84 423.16,290.28 C420.98,276.26 412.52,262.77 401.14,255.15 C392.98,249.69 388.78,247.97 379.65,246.38 C356.50,242.34 333.83,253.79 322.99,275.00 C318.88,283.05 317.88,288.76 317.38,307.00 C317.11,316.62 316.69,325.49 316.44,326.71 C315.75,330.05 310.53,330.99 292.50,331.01 C277.58,331.03 275.96,331.22 268.45,333.83 C252.45,339.40 241.48,349.94 235.25,365.74 C232.91,371.68 232.58,373.90 232.58,384.00 C232.58,394.10 232.91,396.32 235.25,402.26 C241.48,418.06 252.45,428.60 268.45,434.17 C275.96,436.78 277.58,436.97 292.50,436.99 C310.53,437.01 315.75,437.95 316.44,441.29 C316.69,442.51 317.08,451.72 317.32,461.78 C317.72,478.74 317.61,480.23 315.80,482.53 L 313.85 485.00 L 227.18 484.82 C135.54,484.63 135.81,484.63 121.00,482.94 C71.19,477.23 46.10,455.03 38.58,409.98 C35.46,391.30 35.05,374.63 35.03,266.00 C35.02,156.91 35.36,143.41 38.62,123.50 C44.87,85.33 64.64,62.85 99.75,54.00 L 104.00 52.92 L 104.00 47.00 C104.00,43.58 104.41,40.45 105.20,37.65 C104.11,42.97 103.97,51.26 104.17,66.64 C104.42,85.32 104.84,92.12 105.87,94.00 C108.98,99.65 114.56,104.11 120.99,106.07 C124.63,107.17 126.99,107.13 131.50,105.88 C136.99,104.36 144.44,96.80 145.94,91.21 C146.71,88.36 147.00,78.51 146.80,61.63 L 146.54 39.61 C146.69,40.47 146.82,41.35 146.90,42.27 C147.29,46.35 147.93,48.47 148.75,48.40 C149.44,48.35 163.50,48.23 180.00,48.15 L 210.00 48.00 L 210.00 44.39 C210.00,42.97 210.33,41.29 210.89,39.51 L 211.19 65.72 L 211.50 92.68 L 214.39 96.84 C220.00,104.93 229.14,108.48 238.00,106.01 ZM 325.53 205.53 C336.09,199.35 335.53,182.87 324.60,177.90 C320.70,176.14 316.13,176.04 232.46,176.02 L 144.42 176.00 L 140.02 178.25 C133.60,181.53 131.50,184.92 131.50,192.00 C131.50,198.85 133.50,202.25 139.59,205.73 L 143.50 207.97 L 321.32 208.00 ZM 238.98 312.75 C244.73,309.81 247.17,306.30 247.76,300.12 C248.16,295.97 247.79,294.32 245.66,290.68 C244.70,289.04 244.00,287.76 243.02,286.74 C239.39,283.00 231.89,283.00 192.98,283.00 C191.77,283.00 190.52,283.00 189.25,283.00 L 142.30 283.00 L 138.92 285.27 C128.08,292.58 128.59,306.70 139.91,312.67 L 144.31 315.00 L 189.45 315.00 C234.28,315.00 234.61,314.99 238.98,312.75 ZM 242.68 24.00 C240.26,22.76 237.41,22.50 232.60,22.50 C230.22,22.50 228.46,22.53 227.05,22.66 C231.56,21.73 236.72,21.75 240.38,22.96 C241.16,23.22 241.93,23.57 242.68,24.00 ZM 356.03 29.84 C355.81,29.56 355.59,29.29 355.35,29.00 C351.79,24.77 346.20,22.43 340.48,22.04 C347.48,22.29 352.75,24.97 356.03,29.84 ZM 144.32 32.78 L 143.49 31.42 C141.07,27.46 137.47,24.70 133.40,23.19 C138.25,24.83 141.99,28.12 144.32,32.78 ZM 111.51 27.05 C113.17,25.56 115.09,24.37 117.23,23.53 C115.19,24.38 113.26,25.55 111.51,27.05 ZM 213.06 34.32 L 212.40 35.66 C212.61,35.21 212.83,34.76 213.06,34.32 ZM 247.42 28.00 C247.20,27.75 246.98,27.51 246.77,27.28 C246.99,27.51 247.21,27.75 247.42,28.00 ZM 220.22 25.23 C220.11,25.31 220.00,25.38 219.89,25.46 C219.99,25.39 220.09,25.32 220.18,25.26 C220.20,25.25 220.21,25.24 220.22,25.23 Z" fill="rgb(186,186,186)"/>
<path d="M 0.00 256.00 L 0.00 0.00 L 256.00 0.00 L 512.00 0.00 L 512.00 256.00 L 512.00 512.00 L 256.00 512.00 L 0.00 512.00 L 0.00 256.00 ZM 377.08 489.86 C382.30,488.29 387.89,483.45 390.11,478.57 C391.79,474.87 391.96,471.41 391.98,440.31 L 392.00 406.12 L 426.75 405.81 C460.11,405.51 461.66,405.41 465.50,403.35 C478.49,396.35 481.44,379.94 471.63,369.15 C466.56,363.58 466.29,363.54 428.00,363.00 L 392.50 362.50 L 392.00 327.00 C391.46,288.71 391.42,288.44 385.85,283.37 C377.93,276.17 363.84,276.13 356.17,283.30 C350.56,288.53 350.54,288.70 350.00,327.00 L 349.50 362.50 L 313.83 363.00 L 278.17 363.50 L 273.83 366.54 C262.07,374.81 261.36,392.07 272.45,400.53 C279.07,405.58 282.57,406.00 317.66,406.00 L 350.00 406.00 L 350.00 440.03 C350.00,476.53 350.22,478.34 355.30,483.87 C358.13,486.95 366.66,490.98 370.38,490.99 C371.97,491.00 374.98,490.49 377.08,489.86 ZM 315.80 482.53 C317.61,480.23 317.72,478.74 317.32,461.78 C317.08,451.72 316.69,442.51 316.44,441.29 C315.75,437.95 310.53,437.01 292.50,436.99 C277.58,436.97 275.96,436.78 268.45,434.17 C252.45,428.60 241.48,418.06 235.25,402.26 C232.91,396.32 232.58,394.10 232.58,384.00 C232.58,373.90 232.91,371.68 235.25,365.74 C241.48,349.94 252.45,339.40 268.45,333.83 C275.96,331.22 277.58,331.03 292.50,331.01 C310.53,330.99 315.75,330.05 316.44,326.71 C316.69,325.49 317.11,316.62 317.38,307.00 C317.88,288.76 318.88,283.05 322.99,275.00 C333.83,253.79 356.50,242.34 379.65,246.38 C388.78,247.97 392.98,249.69 401.14,255.15 C412.52,262.77 420.98,276.26 423.16,290.28 C424.33,297.84 425.34,299.26 427.80,296.80 C429.34,295.26 429.49,166.03 427.98,146.00 C426.22,122.79 423.33,109.09 417.48,96.33 C407.40,74.29 390.33,60.72 364.25,54.02 L 360.00 52.92 L 360.00 45.43 C360.00,30.33 352.61,21.97 339.29,22.02 C326.40,22.07 318.00,30.29 318.00,42.86 C318.00,45.94 317.53,47.92 316.75,48.14 C316.06,48.34 301.66,48.37 284.75,48.22 L 254.00 47.94 L 254.00 44.91 C254.00,35.67 247.59,25.34 240.38,22.96 C234.54,21.03 224.91,22.13 220.18,25.26 C215.43,28.41 210.00,38.61 210.00,44.39 L 210.00 48.00 L 180.00 48.15 C163.50,48.23 149.44,48.35 148.75,48.40 C147.93,48.47 147.29,46.35 146.90,42.27 C145.69,29.58 137.77,22.00 125.75,22.00 C112.37,22.00 104.00,31.62 104.00,47.00 L 104.00 52.92 L 99.75 54.00 C64.64,62.85 44.87,85.33 38.62,123.50 C35.36,143.41 35.02,156.91 35.03,266.00 C35.05,374.63 35.46,391.30 38.58,409.98 C46.10,455.03 71.19,477.23 121.00,482.94 C135.81,484.63 135.54,484.63 227.18,484.82 L 313.85 485.00 L 315.80 482.53 Z" fill="rgb(254,254,254)"/>
</g>
</svg>