<?xml version="1.0" encoding="UTF-8"?>
<svg version="1.1" xmlns="http://www.w3.org/2000/svg" width="500" height="500">
<path d="M0 0 C1.34913483 0.00356506 1.34913483 0.00356506 2.7255249 0.00720215 C15.33978064 0.05933991 27.48491801 0.56691824 39.72705078 3.890625 C41.678058 4.41805152 43.64978376 4.86691631 45.62109375 5.3125 C66.74123394 10.31875545 87.72398363 19.95633246 104.75 33.4375 C105.58789062 34.08460937 106.42578125 34.73171875 107.2890625 35.3984375 C141.82308524 62.4483067 166.41622346 100.02991573 174.75 143.4375 C174.92901855 144.34218018 175.10803711 145.24686035 175.29248047 146.17895508 C176.90634031 155.32595574 177.08909714 164.31593855 177.06567383 173.57421875 C177.06252162 176.16970193 177.08603287 178.76403231 177.11132812 181.359375 C177.15330356 192.37295808 176.08714585 202.67902744 173.75 213.4375 C173.55124268 214.36643066 173.35248535 215.29536133 173.14770508 216.25244141 C172.64263488 218.47475027 172.09157578 220.67428699 171.5 222.875 C171.29093018 223.65520508 171.08186035 224.43541016 170.86645508 225.23925781 C164.55157363 247.95912786 153.50399699 268.08987247 138.984375 286.58984375 C137.64175184 288.30098411 136.32873899 290.03691111 135.078125 291.81640625 C134.63984375 292.35136719 134.2015625 292.88632812 133.75 293.4375 C133.09 293.4375 132.43 293.4375 131.75 293.4375 C131.42 294.4275 131.09 295.4175 130.75 296.4375 C129.1875 298.125 129.1875 298.125 127.75 299.4375 C128.41 300.05625 129.07 300.675 129.75 301.3125 C131.75 303.4375 131.75 303.4375 131.75 305.4375 C132.41 305.4375 133.07 305.4375 133.75 305.4375 C137.32292527 310.79688791 138.47862988 313.98392102 137.75 320.4375 C135.82633496 324.25477281 133.52061315 326.82804469 130.3125 329.625 C129.16974609 330.63626953 129.16974609 330.63626953 128.00390625 331.66796875 C123.53642775 335.17536522 120.48334441 335.93175383 114.75 335.4375 C108.10677319 333.45866648 104.70079697 327.78210605 100.75 322.4375 C99.43 322.7675 98.11 323.0975 96.75 323.4375 C96.75 324.0975 96.75 324.7575 96.75 325.4375 C94.25136876 326.85662551 91.75115719 328.2728384 89.25 329.6875 C88.20585938 330.28111328 88.20585938 330.28111328 87.140625 330.88671875 C79.79708524 335.0344588 72.55332051 338.70641306 64.5625 341.4375 C63.82346436 341.69313721 63.08442871 341.94877441 62.32299805 342.2121582 C29.37721191 353.52381758 -6.47725438 358.25960151 -40.44140625 348.2421875 C-49.93023249 346.23736883 -57.91999756 348.04980924 -67.125 350.6875 C-68.76662109 351.13802734 -68.76662109 351.13802734 -70.44140625 351.59765625 C-76.80807468 353.36826818 -83.06859877 355.36067788 -89.32568359 357.48242188 C-94.04369237 359.02331771 -98.82778003 360.29442367 -103.625 361.5625 C-110.64264878 363.40104478 -110.64264878 363.40104478 -117.5546875 365.58984375 C-124.50305368 367.77505456 -131.3948643 367.2414348 -137.9375 364.125 C-142.08914729 361.92005814 -142.08914729 361.92005814 -143.25 358.4375 C-144.24 358.1075 -145.23 357.7775 -146.25 357.4375 C-150.86711413 350.64330423 -152.9887981 342.4595237 -155.2109375 334.65234375 C-155.56459381 333.43841446 -155.91825012 332.22448517 -156.28262329 330.97377014 C-157.21733215 327.75825787 -158.14360411 324.54056173 -159.06585693 321.32147217 C-159.9816763 318.1333491 -160.90956564 314.94874184 -161.8359375 311.76367188 C-165.59344911 298.81526973 -169.28265186 285.8482696 -172.89242554 272.8578949 C-174.79019097 266.03471026 -176.75365624 259.23246609 -178.75 252.4375 C-181.51055507 243.03566806 -184.18015535 233.6117552 -186.765625 224.16015625 C-188.14036043 219.18587202 -189.6125037 214.27483206 -191.26953125 209.38671875 C-193.15857618 203.81057317 -194.74941538 198.19129149 -196.25 192.5 C-197.87296075 186.38423405 -199.57186593 180.35966741 -201.625 174.375 C-203.92089143 167.04543866 -204.8674147 158.75653643 -202 151.4375 C-195.16399185 139.71862889 -184.70633828 136.78674427 -172.25 133.4375 C-171.59 133.4375 -170.93 133.4375 -170.25 133.4375 C-170.16363281 132.87804687 -170.07726562 132.31859375 -169.98828125 131.7421875 C-167.05510326 115.00423601 -159.56453582 97.63872579 -150.25 83.4375 C-149.64414063 82.48488281 -149.03828125 81.53226562 -148.4140625 80.55078125 C-143.80633125 73.43884823 -138.78607156 66.84958941 -133.25 60.4375 C-132.42886719 59.48101562 -131.60773438 58.52453125 -130.76171875 57.5390625 C-119.48773243 44.81198461 -106.69750954 34.363925 -92.25 25.4375 C-91.18652344 24.77878906 -90.12304688 24.12007812 -89.02734375 23.44140625 C-73.18205765 13.93423459 -55.3301604 7.2491422 -37.25 3.4375 C-35.48064087 3.05984497 -35.48064087 3.05984497 -33.67553711 2.67456055 C-22.41175279 0.41068126 -11.46707315 -0.07997266 0 0 Z M-95.3125 67.375 C-99.71937277 72.79469928 -100.54547384 77.71173332 -100.51742554 84.57771301 C-100.52195665 85.39305108 -100.52648776 86.20838915 -100.53115618 87.04843444 C-100.54380786 89.77819699 -100.54217932 92.50776022 -100.54052734 95.23754883 C-100.54651213 97.1957271 -100.55331756 99.153903 -100.56088257 101.11207581 C-100.57855526 106.43034169 -100.5832385 111.74854323 -100.58451414 117.06683564 C-100.58593563 120.39015704 -100.59020519 123.71346207 -100.59550858 127.0367794 C-100.61401335 138.63268447 -100.62217866 150.22854355 -100.62060547 161.82446289 C-100.61940409 172.63026373 -100.6405047 183.43586482 -100.6720928 194.24161512 C-100.69825309 203.52160386 -100.70897286 212.80152735 -100.70769465 222.08155268 C-100.70718493 227.62287363 -100.71287392 233.16401709 -100.73405075 238.70530128 C-100.75342874 243.9182513 -100.75356046 249.13085444 -100.73901749 254.34381676 C-100.73692773 256.25457135 -100.74164023 258.16534763 -100.7537384 260.07606506 C-100.7692135 262.68989463 -100.7598682 265.30253151 -100.74447632 267.91633606 C-100.75476344 268.66781239 -100.76505057 269.41928872 -100.77564943 270.19353706 C-100.69395536 276.49561117 -98.66555004 281.6303882 -94.5390625 286.42578125 C-93.98992187 286.86277344 -93.44078125 287.29976562 -92.875 287.75 C-92.33101563 288.19988281 -91.78703125 288.64976562 -91.2265625 289.11328125 C-86.26982926 292.4340966 -82.44283072 293.81236538 -76.45425415 293.79826355 C-75.46651176 293.80210846 -75.46651176 293.80210846 -74.45881498 293.80603105 C-72.26607178 293.81094796 -70.07402675 293.79451172 -67.88134766 293.77807617 C-66.30412818 293.77722944 -64.72690751 293.77770594 -63.14968872 293.77940369 C-58.87734892 293.78026328 -54.60526257 293.76264344 -50.33298159 293.74168181 C-45.86469087 293.72290896 -41.39639414 293.72116409 -36.92807007 293.71760559 C-28.47088095 293.70828692 -20.01380838 293.68367553 -11.55667055 293.65355712 C-1.92674316 293.6200076 7.70318983 293.60352571 17.33316112 293.58847082 C37.13883909 293.55712583 56.9444122 293.50436876 76.75 293.4375 C75.3946674 290.90076712 75.3946674 290.90076712 73.75 288.4375 C73.09 288.4375 72.43 288.4375 71.75 288.4375 C71.53472656 287.91414062 71.31945312 287.39078125 71.09765625 286.8515625 C69.20963604 283.46954369 66.7254736 280.7241829 64.1875 277.8125 C57.86778709 270.52114127 57.86778709 270.52114127 57.4375 266.5625 C57.75 263.4375 57.75 263.4375 59.75 261.0625 C60.74 260.258125 60.74 260.258125 61.75 259.4375 C60.76 259.1075 59.77 258.7775 58.75 258.4375 C58.75 257.7775 58.75 257.1175 58.75 256.4375 C58.09 256.4375 57.43 256.4375 56.75 256.4375 C56.75 255.4475 56.75 254.4575 56.75 253.4375 C53.62410873 249.96176563 53.62410873 249.96176563 49.75 247.4375 C47.48134415 248.49917645 47.48134415 248.49917645 44.9375 250.0625 C23.65671579 262.08712183 -0.30998017 264.57356571 -23.859375 258.5078125 C-45.24034761 252.07577717 -63.23108905 237.52197666 -74.5 218.1875 C-84.97901593 197.84074407 -88.03218707 173.07593605 -81.5078125 151.0390625 C-77.36422617 139.17450784 -70.41811152 119.52155576 -58.25 113.4375 C-58.25 112.7775 -58.25 112.1175 -58.25 111.4375 C-57.693125 111.19 -57.13625 110.9425 -56.5625 110.6875 C-54.16747939 109.48863068 -54.16747939 109.48863068 -52.03515625 107.61328125 C-48.97027376 105.21897614 -45.75461072 103.2774056 -42.375 101.375 C-41.78847656 101.03662109 -41.20195312 100.69824219 -40.59765625 100.34960938 C-34.92418866 97.12633164 -29.12763732 94.52030831 -22.8125 92.8125 C-21.94753906 92.57273438 -21.08257812 92.33296875 -20.19140625 92.0859375 C1.96031876 87.20255589 25.42495435 90.38234503 45.21484375 101.359375 C51.98054414 105.71310756 58.01714945 110.8046992 63.75 116.4375 C64.37519531 117.04980469 65.00039063 117.66210938 65.64453125 118.29296875 C81.45330312 135.02956922 87.16218452 157.45820409 86.89453125 179.84375 C86.05582706 200.69801626 78.67778792 217.34819494 65.75 233.4375 C64.74485524 234.76695921 63.7432655 236.09914226 62.75 237.4375 C64.01965531 238.87604058 65.29077218 240.31329127 66.5625 241.75 C67.62404297 242.95076172 67.62404297 242.95076172 68.70703125 244.17578125 C70.34337122 245.98733162 72.00272168 247.73431703 73.75 249.4375 C74.74 248.7775 75.73 248.1175 76.75 247.4375 C79.625 247 79.625 247 82.75 247.4375 C87.75001825 251.92205245 91.94200425 257.24141638 96.28515625 262.34960938 C96.84589844 263.00380859 97.40664063 263.65800781 97.984375 264.33203125 C98.74572754 265.22692261 98.74572754 265.22692261 99.52246094 266.13989258 C99.92754883 266.56810303 100.33263672 266.99631348 100.75 267.4375 C101.08 267.4375 101.41 267.4375 101.75 267.4375 C101.98616946 187.61496158 101.98616946 187.61496158 101.54147339 107.79489136 C101.51405647 105.16224172 101.49321066 102.52951457 101.47927856 99.89675903 C101.45853047 96.35510876 101.41312351 92.81471868 101.359375 89.2734375 C101.35752449 87.80865715 101.35752449 87.80865715 101.3556366 86.31428528 C101.20264435 79.29059292 99.91100595 72.16931238 95.24066162 66.65560913 C93.81272862 65.22657875 93.81272862 65.22657875 91.75 65.4375 C91.75 64.7775 91.75 64.1175 91.75 63.4375 C90.55375 62.963125 89.3575 62.48875 88.125 62 C87.45210937 61.73316406 86.77921875 61.46632812 86.0859375 61.19140625 C81.14095947 59.5954518 76.27167175 59.30960998 71.10420227 59.29032898 C70.46163567 59.28665229 69.81906907 59.2829756 69.15703076 59.2791875 C67.01784617 59.26823171 64.87871029 59.26432074 62.73950195 59.26049805 C61.19983265 59.25422729 59.66016484 59.24757995 58.12049866 59.24058533 C53.07643676 59.21961614 48.03237481 59.20918993 42.98828125 59.19921875 C41.24695508 59.19516858 39.50562906 59.19105159 37.76430321 59.18686867 C29.58173519 59.16783303 21.39917611 59.15359835 13.21659023 59.1452567 C3.79241992 59.13548879 -5.63151524 59.10917411 -15.05560273 59.06875581 C-22.35435099 59.03853394 -29.65303206 59.0237821 -36.95184165 59.02047569 C-41.30446921 59.01813226 -45.65684508 59.00926422 -50.00940514 58.98401451 C-54.1077746 58.96062192 -58.20572863 58.95654508 -62.30414772 58.96677589 C-63.80083733 58.96726865 -65.29754818 58.96102573 -66.79417419 58.94721985 C-77.41291015 58.85481545 -87.63671182 59.19509489 -95.3125 67.375 Z M-22.25 99.4375 C-23.07242188 99.72367187 -23.89484375 100.00984375 -24.7421875 100.3046875 C-26.59262181 100.97699062 -28.42446389 101.70026426 -30.25 102.4375 C-27.07789069 103.48549177 -25.49900505 103.39911749 -22.4375 102.125 C-6.84256009 96.61343329 10.84147063 97.8282962 26.75 101.4375 C20.71481517 95.40231517 8.69987513 96.10514062 0.6875 96.0625 C-7.31434655 96.11171102 -14.6545895 96.72659786 -22.25 99.4375 Z M-33.25 103.4375 C-33.58 104.0975 -33.91 104.7575 -34.25 105.4375 C-32.93 105.1075 -31.61 104.7775 -30.25 104.4375 C-31.24 104.1075 -32.23 103.7775 -33.25 103.4375 Z M-36.25 105.4375 C-37.24 106.4275 -38.23 107.4175 -39.25 108.4375 C-37.6 107.7775 -35.95 107.1175 -34.25 106.4375 C-34.91 106.1075 -35.57 105.7775 -36.25 105.4375 Z M-42.25 108.4375 C-44.15801574 109.63879367 -44.15801574 109.63879367 -45.9375 111.375 C-46.56011719 111.94089844 -47.18273437 112.50679688 -47.82421875 113.08984375 C-48.52998047 113.75693359 -48.52998047 113.75693359 -49.25 114.4375 C-45.85406522 114.4375 -45.18380119 113.91584052 -42.5625 111.9375 C-41.93988281 111.4734375 -41.31726563 111.009375 -40.67578125 110.53125 C-40.20527344 110.1703125 -39.73476562 109.809375 -39.25 109.4375 C-40.24 109.1075 -41.23 108.7775 -42.25 108.4375 Z M-42.25 124.4375 C-43.24 125.0975 -44.23 125.7575 -45.25 126.4375 C-45.25 127.0975 -45.25 127.7575 -45.25 128.4375 C-46.24 128.7675 -47.23 129.0975 -48.25 129.4375 C-56.18067694 138.57934727 -61.2288053 148.80181771 -64.25 160.4375 C-64.50910156 161.34060913 -64.50910156 161.34060913 -64.7734375 162.26196289 C-65.72385961 166.60069826 -65.47750232 171.07639455 -65.5 175.5 C-65.520625 176.48677734 -65.54125 177.47355469 -65.5625 178.49023438 C-65.65255678 195.67982286 -58.10149675 211.18113846 -46.25 223.4375 C-33.04173068 235.89611079 -17.9867398 242.59142831 0.2890625 243.5390625 C10.41493499 243.241915 20.86649363 241.45930324 29.75 236.4375 C30.74902344 235.88578125 31.74804688 235.3340625 32.77734375 234.765625 C37.71490181 231.96468298 42.49339438 229.22805391 46.75 225.4375 C46.75 224.7775 46.75 224.1175 46.75 223.4375 C47.41 223.4375 48.07 223.4375 48.75 223.4375 C62.80352461 208.84588999 68.16121183 191.36164315 67.8984375 171.59375 C67.52107373 157.78594788 61.64425428 144.65251111 53.75 133.4375 C53.09 133.4375 52.43 133.4375 51.75 133.4375 C51.523125 132.86 51.29625 132.2825 51.0625 131.6875 C49.40598007 128.84775155 47.35531294 127.42250033 44.75 125.4375 C44.151875 124.798125 43.55375 124.15875 42.9375 123.5 C31.83161036 113.02873263 15.13234564 108.71104991 0.1875 108.0625 C-16.07396378 108.77626654 -29.54872969 114.56841689 -42.25 124.4375 Z M-54.25 118.4375 C-53.92 119.0975 -53.59 119.7575 -53.25 120.4375 C-52.92 119.7775 -52.59 119.1175 -52.25 118.4375 C-52.91 118.4375 -53.57 118.4375 -54.25 118.4375 Z M-57.25 121.4375 C-57.25 122.4275 -57.25 123.4175 -57.25 124.4375 C-56.59 123.4475 -55.93 122.4575 -55.25 121.4375 C-55.91 121.4375 -56.57 121.4375 -57.25 121.4375 Z M-60.25 125.4375 C-60.58 126.0975 -60.91 126.7575 -61.25 127.4375 C-60.59 127.4375 -59.93 127.4375 -59.25 127.4375 C-59.58 126.7775 -59.91 126.1175 -60.25 125.4375 Z M-67.25 134.4375 C-67.58 135.7575 -67.91 137.0775 -68.25 138.4375 C-67.59 138.1075 -66.93 137.7775 -66.25 137.4375 C-66.58 136.4475 -66.91 135.4575 -67.25 134.4375 Z M-69.25 138.4375 C-69.91 140.4175 -70.57 142.3975 -71.25 144.4375 C-70.26 143.4475 -69.27 142.4575 -68.25 141.4375 C-68.58 140.4475 -68.91 139.4575 -69.25 138.4375 Z M-72.25 144.4375 C-71.25 146.4375 -71.25 146.4375 -71.25 146.4375 Z M78.75 258.4375 C80.89875142 262.2983211 83.37138456 265.39146612 86.375 268.625 C90.65158172 273.24066344 90.65158172 273.24066344 91.75 275.4375 C92.41 275.4375 93.07 275.4375 93.75 275.4375 C94.16076782 276.32586548 94.16076782 276.32586548 94.57983398 277.23217773 C95.70817714 279.35867965 96.88079694 280.92855363 98.47265625 282.72265625 C99.00705322 283.33085205 99.5414502 283.93904785 100.09204102 284.56567383 C100.65979248 285.20400146 101.22754395 285.8423291 101.8125 286.5 C106.66176024 292.00254935 111.34018479 297.57537643 115.84765625 303.36328125 C117.72801338 305.4135269 119.19228266 306.406438 121.75 307.4375 C121.16226593 304.3380027 120.2848277 302.55289483 118.203125 300.1953125 C117.6875 299.60363281 117.171875 299.01195312 116.640625 298.40234375 C116.09921875 297.79519531 115.5578125 297.18804687 115 296.5625 C113.94234756 295.35708729 112.88505247 294.15136093 111.828125 292.9453125 C111.31185547 292.36297852 110.79558594 291.78064453 110.26367188 291.18066406 C108.79085809 289.4845527 107.38721667 287.74625458 105.984375 285.9921875 C105.24703125 285.14914062 104.5096875 284.30609375 103.75 283.4375 C103.09 283.4375 102.43 283.4375 101.75 283.4375 C101.51023437 282.88964844 101.27046875 282.34179688 101.0234375 281.77734375 C99.44518217 278.8774206 97.49058323 276.53377992 95.375 274 C90.78172847 268.47732069 90.78172847 268.47732069 88.62109375 265.765625 C86.48320272 263.10553512 84.29110176 260.71797594 81.75 258.4375 C80.76 258.4375 79.77 258.4375 78.75 258.4375 Z " fill="#ECECEC" transform="translate(263.25,66.5625)"/>
<path d="M0 0 C2.52381979 2.19878239 4.94131757 4.46224069 7.328125 6.80859375 C8.37613281 7.83726562 8.37613281 7.83726562 9.4453125 8.88671875 C25.67716701 25.93963983 31.74739455 48.2367314 31.47265625 71.21484375 C30.63395206 92.06911001 23.25591292 108.71928869 10.328125 124.80859375 C9.32298024 126.13805296 8.3213905 127.47023601 7.328125 128.80859375 C8.61902243 130.26760805 9.91086939 131.72578226 11.203125 133.18359375 C12.28207031 134.40175781 12.28207031 134.40175781 13.3828125 135.64453125 C14.66108438 137.06654454 15.97607086 138.45653961 17.328125 139.80859375 C18.318125 139.14859375 19.308125 138.48859375 20.328125 137.80859375 C23.203125 137.37109375 23.203125 137.37109375 26.328125 137.80859375 C28.31628078 139.42061195 29.69337031 140.87190548 31.328125 142.80859375 C32.82700675 144.45544555 34.32711312 146.10118321 35.828125 147.74609375 C37.3292135 149.43262557 38.82930296 151.12004741 40.328125 152.80859375 C41.16537109 153.71931641 41.16537109 153.71931641 42.01953125 154.6484375 C44.7635318 157.72077999 45.328125 158.48986856 45.328125 162.80859375 C45.988125 162.80859375 46.648125 162.80859375 47.328125 162.80859375 C48.61854414 164.25623637 49.83579634 165.76948524 51.015625 167.30859375 C53.58099444 170.60228688 56.1698577 173.82178933 58.953125 176.93359375 C61.24570872 179.50626689 63.32253722 182.1321378 65.328125 184.93359375 C67.84248919 188.38574783 70.63936552 190.97184939 74.0078125 193.58203125 C74.44351563 193.98679687 74.87921875 194.3915625 75.328125 194.80859375 C75.328125 195.46859375 75.328125 196.12859375 75.328125 196.80859375 C75.988125 196.80859375 76.648125 196.80859375 77.328125 196.80859375 C80.90105027 202.16798166 82.05675488 205.35501477 81.328125 211.80859375 C79.40445996 215.62586656 77.09873815 218.19913844 73.890625 220.99609375 C73.12878906 221.67027344 72.36695313 222.34445312 71.58203125 223.0390625 C67.11455275 226.54645897 64.06146941 227.30284758 58.328125 226.80859375 C53.46713721 224.86548122 51.06752187 222.68949082 48.078125 218.43359375 C47.31113281 217.36753906 46.54414063 216.30148437 45.75390625 215.203125 C45.35768066 214.6457666 44.96145508 214.0884082 44.55322266 213.51416016 C42.5130765 210.67389291 40.39442263 207.89524198 38.265625 205.12109375 C37.8516748 204.5794458 37.43772461 204.03779785 37.01123047 203.47973633 C33.7831206 199.29766478 30.34099039 195.36577645 26.7265625 191.515625 C25.328125 189.80859375 25.328125 189.80859375 25.328125 187.80859375 C24.750625 187.56109375 24.173125 187.31359375 23.578125 187.05859375 C20.99872521 185.62559387 19.26690908 184.02434699 17.328125 181.80859375 C17.328125 181.14859375 17.328125 180.48859375 17.328125 179.80859375 C16.668125 179.80859375 16.008125 179.80859375 15.328125 179.80859375 C12.11963878 176.31776075 9.26321772 172.53031099 6.328125 168.80859375 C5.69261719 168.04933594 5.05710937 167.29007813 4.40234375 166.5078125 C1.91152252 163.44630191 0.45801624 161.4840282 -0.296875 157.55859375 C0.46200996 154.21949991 1.70320482 152.94134139 4.328125 150.80859375 C3.668125 150.47859375 3.008125 150.14859375 2.328125 149.80859375 C2.328125 149.14859375 2.328125 148.48859375 2.328125 147.80859375 C1.668125 147.80859375 1.008125 147.80859375 0.328125 147.80859375 C0.328125 146.81859375 0.328125 145.82859375 0.328125 144.80859375 C-0.661875 144.47859375 -1.651875 144.14859375 -2.671875 143.80859375 C-4.04383074 142.51503548 -5.38370156 141.18560673 -6.671875 139.80859375 C-7.63673828 140.37126953 -7.63673828 140.37126953 -8.62109375 140.9453125 C-31.08063731 153.66491135 -55.23469265 157.33029223 -80.28125 150.87890625 C-102.85468696 144.08814202 -121.16116382 128.29048272 -132.671875 107.80859375 C-142.78371349 87.92104437 -145.27716994 63.84955497 -138.9296875 42.41015625 C-134.12238327 28.64514228 -127.61081515 14.86059281 -116.671875 4.80859375 C-116.011875 4.80859375 -115.351875 4.80859375 -114.671875 4.80859375 C-114.671875 4.14859375 -114.671875 3.48859375 -114.671875 2.80859375 C-105.40700353 -6.26019578 -91.59687613 -13.47320386 -79.234375 -16.81640625 C-77.93693359 -17.17605469 -77.93693359 -17.17605469 -76.61328125 -17.54296875 C-49.49959482 -23.52022233 -21.46263228 -17.60312385 0 0 Z M-78.671875 -9.19140625 C-79.49429688 -8.90523437 -80.31671875 -8.6190625 -81.1640625 -8.32421875 C-83.01449681 -7.65191563 -84.84633889 -6.92864199 -86.671875 -6.19140625 C-83.49976569 -5.14341448 -81.92088005 -5.22978876 -78.859375 -6.50390625 C-63.26443509 -12.01547296 -45.58040437 -10.80061005 -29.671875 -7.19140625 C-35.70705983 -13.22659108 -47.72199987 -12.52376563 -55.734375 -12.56640625 C-63.73622155 -12.51719523 -71.0764645 -11.90230839 -78.671875 -9.19140625 Z M-89.671875 -5.19140625 C-90.001875 -4.53140625 -90.331875 -3.87140625 -90.671875 -3.19140625 C-89.351875 -3.52140625 -88.031875 -3.85140625 -86.671875 -4.19140625 C-87.661875 -4.52140625 -88.651875 -4.85140625 -89.671875 -5.19140625 Z M-92.671875 -3.19140625 C-93.661875 -2.20140625 -94.651875 -1.21140625 -95.671875 -0.19140625 C-94.021875 -0.85140625 -92.371875 -1.51140625 -90.671875 -2.19140625 C-91.331875 -2.52140625 -91.991875 -2.85140625 -92.671875 -3.19140625 Z M-98.671875 -0.19140625 C-100.57989074 1.00988742 -100.57989074 1.00988742 -102.359375 2.74609375 C-102.98199219 3.31199219 -103.60460937 3.87789062 -104.24609375 4.4609375 C-104.95185547 5.12802734 -104.95185547 5.12802734 -105.671875 5.80859375 C-102.27594022 5.80859375 -101.60567619 5.28693427 -98.984375 3.30859375 C-98.36175781 2.84453125 -97.73914063 2.38046875 -97.09765625 1.90234375 C-96.62714844 1.54140625 -96.15664062 1.18046875 -95.671875 0.80859375 C-96.661875 0.47859375 -97.651875 0.14859375 -98.671875 -0.19140625 Z M-98.671875 15.80859375 C-99.661875 16.46859375 -100.651875 17.12859375 -101.671875 17.80859375 C-101.671875 18.46859375 -101.671875 19.12859375 -101.671875 19.80859375 C-102.661875 20.13859375 -103.651875 20.46859375 -104.671875 20.80859375 C-112.60255194 29.95044102 -117.6506803 40.17291146 -120.671875 51.80859375 C-120.93097656 52.71170288 -120.93097656 52.71170288 -121.1953125 53.63305664 C-122.14573461 57.97179201 -121.89937732 62.4474883 -121.921875 66.87109375 C-121.9425 67.85787109 -121.963125 68.84464844 -121.984375 69.86132812 C-122.07443178 87.05091661 -114.52337175 102.55223221 -102.671875 114.80859375 C-89.46360568 127.26720454 -74.4086148 133.96252206 -56.1328125 134.91015625 C-46.00694001 134.61300875 -35.55538137 132.83039699 -26.671875 127.80859375 C-25.67285156 127.256875 -24.67382812 126.70515625 -23.64453125 126.13671875 C-18.70697319 123.33577673 -13.92848062 120.59914766 -9.671875 116.80859375 C-9.671875 116.14859375 -9.671875 115.48859375 -9.671875 114.80859375 C-9.011875 114.80859375 -8.351875 114.80859375 -7.671875 114.80859375 C6.38164961 100.21698374 11.73933683 82.7327369 11.4765625 62.96484375 C11.09919873 49.15704163 5.22237928 36.02360486 -2.671875 24.80859375 C-3.331875 24.80859375 -3.991875 24.80859375 -4.671875 24.80859375 C-4.89875 24.23109375 -5.125625 23.65359375 -5.359375 23.05859375 C-7.01589493 20.2188453 -9.06656206 18.79359408 -11.671875 16.80859375 C-12.27 16.16921875 -12.868125 15.52984375 -13.484375 14.87109375 C-24.59026464 4.39982638 -41.28952936 0.08214366 -56.234375 -0.56640625 C-72.49583878 0.14736029 -85.97060469 5.93951064 -98.671875 15.80859375 Z M-110.671875 9.80859375 C-110.341875 10.46859375 -110.011875 11.12859375 -109.671875 11.80859375 C-109.341875 11.14859375 -109.011875 10.48859375 -108.671875 9.80859375 C-109.331875 9.80859375 -109.991875 9.80859375 -110.671875 9.80859375 Z M-113.671875 12.80859375 C-113.671875 13.79859375 -113.671875 14.78859375 -113.671875 15.80859375 C-113.011875 14.81859375 -112.351875 13.82859375 -111.671875 12.80859375 C-112.331875 12.80859375 -112.991875 12.80859375 -113.671875 12.80859375 Z M-116.671875 16.80859375 C-117.001875 17.46859375 -117.331875 18.12859375 -117.671875 18.80859375 C-117.011875 18.80859375 -116.351875 18.80859375 -115.671875 18.80859375 C-116.001875 18.14859375 -116.331875 17.48859375 -116.671875 16.80859375 Z M-123.671875 25.80859375 C-124.001875 27.12859375 -124.331875 28.44859375 -124.671875 29.80859375 C-124.011875 29.47859375 -123.351875 29.14859375 -122.671875 28.80859375 C-123.001875 27.81859375 -123.331875 26.82859375 -123.671875 25.80859375 Z M-125.671875 29.80859375 C-126.331875 31.78859375 -126.991875 33.76859375 -127.671875 35.80859375 C-126.681875 34.81859375 -125.691875 33.82859375 -124.671875 32.80859375 C-125.001875 31.81859375 -125.331875 30.82859375 -125.671875 29.80859375 Z M-128.671875 35.80859375 C-127.671875 37.80859375 -127.671875 37.80859375 -127.671875 37.80859375 Z M22.328125 149.80859375 C24.47687642 153.66941485 26.94950956 156.76255987 29.953125 159.99609375 C34.22970672 164.61175719 34.22970672 164.61175719 35.328125 166.80859375 C35.988125 166.80859375 36.648125 166.80859375 37.328125 166.80859375 C37.73889282 167.69695923 37.73889282 167.69695923 38.15795898 168.60327148 C39.28630214 170.7297734 40.45892194 172.29964738 42.05078125 174.09375 C42.58517822 174.7019458 43.1195752 175.3101416 43.67016602 175.93676758 C44.23791748 176.57509521 44.80566895 177.21342285 45.390625 177.87109375 C50.23988524 183.3736431 54.91830979 188.94647018 59.42578125 194.734375 C61.30613838 196.78462065 62.77040766 197.77753175 65.328125 198.80859375 C64.74039093 195.70909645 63.8629527 193.92398858 61.78125 191.56640625 C61.265625 190.97472656 60.75 190.38304687 60.21875 189.7734375 C59.67734375 189.16628906 59.1359375 188.55914062 58.578125 187.93359375 C57.52047256 186.72818104 56.46317747 185.52245468 55.40625 184.31640625 C54.88998047 183.73407227 54.37371094 183.15173828 53.84179688 182.55175781 C52.36898309 180.85564645 50.96534167 179.11734833 49.5625 177.36328125 C48.82515625 176.52023437 48.0878125 175.6771875 47.328125 174.80859375 C46.668125 174.80859375 46.008125 174.80859375 45.328125 174.80859375 C45.08835937 174.26074219 44.84859375 173.71289062 44.6015625 173.1484375 C43.02330717 170.24851435 41.06870823 167.90487367 38.953125 165.37109375 C34.35985347 159.84841444 34.35985347 159.84841444 32.19921875 157.13671875 C30.06132772 154.47662887 27.86922676 152.08906969 25.328125 149.80859375 C24.338125 149.80859375 23.348125 149.80859375 22.328125 149.80859375 Z " fill="#E5E5E5" transform="translate(319.671875,175.19140625)"/>
<path d="M0 0 C4.07460331 0.7334286 5.57155364 2.53744086 8.125 5.5625 C9.62388175 7.2093518 11.12398812 8.85508946 12.625 10.5 C14.1260885 12.18653182 15.62617796 13.87395366 17.125 15.5625 C17.68316406 16.16964844 18.24132812 16.77679688 18.81640625 17.40234375 C21.5604068 20.47468624 22.125 21.24377481 22.125 25.5625 C22.785 25.5625 23.445 25.5625 24.125 25.5625 C25.41541914 27.01014262 26.63267134 28.52339149 27.8125 30.0625 C30.37786944 33.35619313 32.9667327 36.57569558 35.75 39.6875 C38.04258372 42.26017314 40.11941222 44.88604405 42.125 47.6875 C44.63936419 51.13965408 47.43624052 53.72575564 50.8046875 56.3359375 C51.45824219 56.94308594 51.45824219 56.94308594 52.125 57.5625 C52.125 58.2225 52.125 58.8825 52.125 59.5625 C52.785 59.5625 53.445 59.5625 54.125 59.5625 C57.69792527 64.92188791 58.85362988 68.10892102 58.125 74.5625 C56.20133496 78.37977281 53.89561315 80.95304469 50.6875 83.75 C49.92566406 84.42417969 49.16382813 85.09835937 48.37890625 85.79296875 C43.91142775 89.30036522 40.85834441 90.05675383 35.125 89.5625 C30.26401221 87.61938747 27.86439687 85.44339707 24.875 81.1875 C24.10800781 80.12144531 23.34101563 79.05539062 22.55078125 77.95703125 C22.15455566 77.39967285 21.75833008 76.84231445 21.35009766 76.26806641 C19.3099515 73.42779916 17.19129763 70.64914823 15.0625 67.875 C14.6485498 67.33335205 14.23459961 66.7917041 13.80810547 66.23364258 C10.5799956 62.05157103 7.13786539 58.1196827 3.5234375 54.26953125 C2.125 52.5625 2.125 52.5625 2.125 50.5625 C1.5475 50.315 0.97 50.0675 0.375 49.8125 C-2.20439979 48.37950012 -3.93621592 46.77825324 -5.875 44.5625 C-5.875 43.9025 -5.875 43.2425 -5.875 42.5625 C-6.535 42.5625 -7.195 42.5625 -7.875 42.5625 C-11.08348622 39.071667 -13.93990728 35.28421724 -16.875 31.5625 C-17.51050781 30.80324219 -18.14601563 30.04398437 -18.80078125 29.26171875 C-21.330227 26.15273412 -22.75659735 24.25976004 -23.4375 20.25 C-22.80732587 17.23916806 -22.43443287 16.23936981 -19.875 14.5625 C-17.1875 13.875 -17.1875 13.875 -14.875 13.5625 C-14.875 12.9025 -14.875 12.2425 -14.875 11.5625 C-13.4140625 10.34375 -13.4140625 10.34375 -11.5 9.0625 C-8.61960148 7.11852734 -6.41958039 5.48828666 -4.625 2.4375 C-2.875 0.5625 -2.875 0.5625 0 0 Z M-0.875 12.5625 C1.27375142 16.4233211 3.74638456 19.51646612 6.75 22.75 C11.02658172 27.36566344 11.02658172 27.36566344 12.125 29.5625 C12.785 29.5625 13.445 29.5625 14.125 29.5625 C14.53576782 30.45086548 14.53576782 30.45086548 14.95483398 31.35717773 C16.08317714 33.48367965 17.25579694 35.05355363 18.84765625 36.84765625 C19.38205322 37.45585205 19.9164502 38.06404785 20.46704102 38.69067383 C21.03479248 39.32900146 21.60254395 39.9673291 22.1875 40.625 C27.03676024 46.12754935 31.71518479 51.70037643 36.22265625 57.48828125 C38.10301338 59.5385269 39.56728266 60.531438 42.125 61.5625 C41.53726593 58.4630027 40.6598277 56.67789483 38.578125 54.3203125 C38.0625 53.72863281 37.546875 53.13695312 37.015625 52.52734375 C36.47421875 51.92019531 35.9328125 51.31304687 35.375 50.6875 C34.31734756 49.48208729 33.26005247 48.27636093 32.203125 47.0703125 C31.68685547 46.48797852 31.17058594 45.90564453 30.63867188 45.30566406 C29.16585809 43.6095527 27.76221667 41.87125458 26.359375 40.1171875 C25.62203125 39.27414062 24.8846875 38.43109375 24.125 37.5625 C23.465 37.5625 22.805 37.5625 22.125 37.5625 C21.88523437 37.01464844 21.64546875 36.46679688 21.3984375 35.90234375 C19.82018217 33.0024206 17.86558323 30.65877992 15.75 28.125 C11.15672847 22.60232069 11.15672847 22.60232069 8.99609375 19.890625 C6.85820272 17.23053512 4.66610176 14.84297594 2.125 12.5625 C1.135 12.5625 0.145 12.5625 -0.875 12.5625 Z " fill="#B4B4B4" transform="translate(342.875,312.4375)"/>
<path d="M0 0 C0 0.66 0 1.32 0 2 C0.99 2.33 1.98 2.66 3 3 C6.33896867 8.2194318 8.98049354 13.79349652 7.66015625 20.0234375 C6.63423059 23.09514392 5.35999663 26.01412454 3.9375 28.921875 C2.99961542 31.00085248 2.2988105 32.73628412 2 35 C2.96302501 36.79764669 3.93283602 38.59418435 5 40.33203125 C6.1519189 42.25339598 6.84496816 43.75203829 7 46 C6.4375 48.1875 6.4375 48.1875 5 50 C2.03895566 50.90118741 0.02069342 51.37397876 -2.9296875 50.29296875 C-7.30624375 47.55968551 -10.38609283 43.38762989 -13 39 C-13.64315566 35.68190146 -13.43862343 33.39933157 -13 30 C-11.515 29.505 -11.515 29.505 -10 29 C-7.1625529 23.18323345 -7.99775226 18.00674321 -10 12 C-14.1767959 10.6077347 -18.0855234 10.37908867 -22.3125 11.75 C-25.03797507 13.76887042 -25.84025783 16.19748576 -26.4921875 19.47265625 C-26.74766245 21.2010225 -26.99765348 22.93020814 -27.2421875 24.66015625 C-28.20114431 27.62105899 -29.33028507 28.47093676 -32 30 C-37.12370722 30.62739272 -37.12370722 30.62739272 -39.6640625 28.80859375 C-42.35008373 25.17225507 -41.3418456 20.31346999 -41 16 C-39.77761284 9.76582549 -35.99927848 4.41524048 -31.07421875 0.44921875 C-20.49858267 -6.51221937 -10.75086947 -6.17179544 0 0 Z " fill="#F1F1F1" transform="translate(270,208)"/>
<path d="M0 0 C0.66 0 1.32 0 2 0 C2.2475 1.175625 2.495 2.35125 2.75 3.5625 C4.761534 11.51016928 8.57448762 16.12375928 15.436203 20.58334351 C20.524476 22.60599939 25.21697194 22.43139778 30.64575195 22.41650391 C32.3956543 22.42938194 32.3956543 22.42938194 34.1809082 22.44252014 C38.03342728 22.46759125 41.88568802 22.47196139 45.73828125 22.4765625 C48.42101474 22.49087606 51.10371023 22.50644367 53.78642273 22.52377319 C60.12910863 22.56225873 66.47175859 22.58649651 72.81453151 22.60489786 C84.15784631 22.63828641 95.50105101 22.6963265 106.84423798 22.75888956 C111.45810768 22.78369215 116.07194979 22.7987439 120.68586731 22.81118774 C123.11260032 22.82140542 125.53933274 22.8317638 127.96606445 22.84228516 C129.05572006 22.84332748 130.14537567 22.84436981 131.26805115 22.84544373 C137.25849695 22.87741426 143.05877761 23.22301454 149 24 C149 26.97 149 29.94 149 33 C131.17488426 33.25948654 113.58381753 32.72430099 95.8092041 31.34732056 C89.49688948 30.85932453 83.18214949 30.40538062 76.8671875 29.953125 C75.64781494 29.86545364 74.42844238 29.77778229 73.17211914 29.68745422 C61.74608007 28.88155294 50.34154644 28.41795956 38.890625 28.17578125 C16.19400531 27.61689361 16.19400531 27.61689361 8.1875 20.5 C3 14.57142857 3 14.57142857 3 11 C2.34 11 1.68 11 1 11 C0.67 7.37 0.34 3.74 0 0 Z " fill="#B6B6B6" transform="translate(161,337)"/>
<path d="M0 0 C3.32038061 1.35004486 4.53763714 3.18052667 6.61328125 6.07421875 C8.52382109 8.81235369 8.52382109 8.81235369 10.48828125 11.01171875 C11.47828125 11.01171875 12.46828125 11.01171875 13.48828125 11.01171875 C12.33954505 14.45792736 11.41246483 15.10341071 8.55078125 17.19921875 C7.84050781 17.72902344 7.13023437 18.25882812 6.3984375 18.8046875 C4.48828125 20.01171875 4.48828125 20.01171875 2.48828125 20.01171875 C2.48828125 20.67171875 2.48828125 21.33171875 2.48828125 22.01171875 C1.49828125 22.34171875 0.50828125 22.67171875 -0.51171875 23.01171875 C-1.50171875 22.35171875 -2.49171875 21.69171875 -3.51171875 21.01171875 C-3.51171875 20.35171875 -3.51171875 19.69171875 -3.51171875 19.01171875 C-4.17171875 19.01171875 -4.83171875 19.01171875 -5.51171875 19.01171875 C-5.51171875 18.02171875 -5.51171875 17.03171875 -5.51171875 16.01171875 C-6.50171875 15.68171875 -7.49171875 15.35171875 -8.51171875 15.01171875 C-10.67677867 11.76412886 -11.03593441 10.77915875 -10.51171875 7.01171875 C-8.9375 4.95703125 -8.9375 4.95703125 -6.82421875 3.13671875 C-6.13972656 2.52054687 -5.45523437 1.904375 -4.75 1.26953125 C-2.51171875 0.01171875 -2.51171875 0.01171875 0 0 Z " fill="#E3E3E3" transform="translate(325.51171875,303.98828125)"/>
<path d="M0 0 C2.43119623 1.87015094 3.64069173 3.28138345 5 6 C5.41067154 10.62005487 4.93664706 13.3545071 2 17 C-0.93187013 18.74327413 -2.64905716 19.0143242 -6.0625 18.875 C-9.52739798 17.84290273 -10.87391177 16.91352832 -13 14 C-14.23946871 10.19896263 -14.19408217 8.50461364 -12.75 4.75 C-9.55080901 -0.27730013 -5.63351245 -0.95406259 0 0 Z " fill="#F1F1F1" transform="translate(287,261)"/>
<path d="M0 0 C2.35546875 0.8203125 2.35546875 0.8203125 4.35546875 2.8203125 C4.19522282 5.68693407 3.45196014 6.72225533 1.4296875 8.77734375 C0.24826172 9.69580078 0.24826172 9.69580078 -0.95703125 10.6328125 C-1.73691406 11.25800781 -2.51679688 11.88320313 -3.3203125 12.52734375 C-5.64453125 13.8203125 -5.64453125 13.8203125 -7.875 13.58203125 C-9.64453125 12.8203125 -9.64453125 12.8203125 -10.64453125 11.8203125 C-11.04017931 8.68677985 -11.01976764 7.31007514 -9.0703125 4.765625 C-8.37292969 4.16492188 -7.67554688 3.56421875 -6.95703125 2.9453125 C-6.27253906 2.32914062 -5.58804687 1.71296875 -4.8828125 1.078125 C-2.64453125 -0.1796875 -2.64453125 -0.1796875 0 0 Z " fill="#B6B6B6" transform="translate(325.64453125,304.1796875)"/>
<path d="M0 0 C0.66 0 1.32 0 2 0 C2.2475 1.175625 2.495 2.35125 2.75 3.5625 C4.42090637 10.16433287 7.20158923 15.13439282 13 19 C14.97711651 20.04451438 16.97250996 21.05698138 19 22 C18.34 22.33 17.68 22.66 17 23 C17 23.66 17 24.32 17 25 C26.9 25.66 36.8 26.32 47 27 C47 27.33 47 27.66 47 28 C17.08531338 28.40916745 17.08531338 28.40916745 8.1875 20.5 C3 14.57142857 3 14.57142857 3 11 C2.34 11 1.68 11 1 11 C0.67 7.37 0.34 3.74 0 0 Z " fill="#CACACA" transform="translate(161,337)"/>
<path d="M0 0 C2.0625 0.4375 2.0625 0.4375 4 1 C4 1.66 4 2.32 4 3 C1.93827387 3.33808686 -0.1244203 3.67027361 -2.1875 4 C-3.91033203 4.2784375 -3.91033203 4.2784375 -5.66796875 4.5625 C-8.50415393 4.93489477 -11.14719564 5.08596021 -14 5 C-14.33 4.34 -14.66 3.68 -15 3 C-14.00097656 2.86722656 -13.00195312 2.73445313 -11.97265625 2.59765625 C-10.68230469 2.42105469 -9.39195312 2.24445313 -8.0625 2.0625 C-6.77472656 1.88847656 -5.48695313 1.71445312 -4.16015625 1.53515625 C-1.14533687 1.33837577 -1.14533687 1.33837577 0 0 Z " fill="#DFDFDF" transform="translate(282,324)"/>
<path d="M0 0 C2.9375 1.25 2.9375 1.25 6 3 C6.875 5.1875 6.875 5.1875 7 7 C3.59687262 5.94124926 0.98646769 4.99097846 -2 3 C-1 1 -1 1 0 0 Z " fill="#BDBDBD" transform="translate(170,354)"/>
<path d="M0 0 C-1.39332574 3.36720387 -2.9789286 4.9859524 -6 7 C-5.37162381 3.35541809 -4.14650034 0 0 0 Z " fill="#BCBCBC" transform="translate(400,388)"/>
<path d="" fill="#FFFFFF" transform="translate(0,0)"/>
<path d="" fill="#FFFFFF" transform="translate(0,0)"/>
<path d="" fill="#FFFFFF" transform="translate(0,0)"/>
<path d="" fill="#FFFFFF" transform="translate(0,0)"/>
<path d="" fill="#FFFFFF" transform="translate(0,0)"/>
<path d="" fill="#FFFFFF" transform="translate(0,0)"/>
<path d="" fill="#FFFFFF" transform="translate(0,0)"/>
<path d="" fill="#FFFFFF" transform="translate(0,0)"/>
<path d="" fill="#FFFFFF" transform="translate(0,0)"/>
<path d="" fill="#FFFFFF" transform="translate(0,0)"/>
<path d="" fill="#FFFFFF" transform="translate(0,0)"/>
<path d="" fill="#FFFFFF" transform="translate(0,0)"/>
<path d="" fill="#FFFFFF" transform="translate(0,0)"/>
<path d="" fill="#FFFFFF" transform="translate(0,0)"/>
<path d="" fill="#FFFFFF" transform="translate(0,0)"/>
<path d="" fill="#FFFFFF" transform="translate(0,0)"/>
<path d="" fill="#FFFFFF" transform="translate(0,0)"/>
<path d="" fill="#FFFFFF" transform="translate(0,0)"/>
<path d="" fill="#FFFFFF" transform="translate(0,0)"/>
<path d="" fill="#FFFFFF" transform="translate(0,0)"/>
<path d="" fill="#FFFFFF" transform="translate(0,0)"/>
<path d="" fill="#FFFFFF" transform="translate(0,0)"/>
<path d="" fill="#FFFFFF" transform="translate(0,0)"/>
<path d="" fill="#FFFFFF" transform="translate(0,0)"/>
<path d="" fill="#FFFFFF" transform="translate(0,0)"/>
<path d="" fill="#FFFFFF" transform="translate(0,0)"/>
<path d="" fill="#FFFFFF" transform="translate(0,0)"/>
<path d="" fill="#FFFFFF" transform="translate(0,0)"/>
<path d="" fill="#FFFFFF" transform="translate(0,0)"/>
<path d="" fill="#FFFFFF" transform="translate(0,0)"/>
<path d="" fill="#FFFFFF" transform="translate(0,0)"/>
<path d="" fill="#FFFFFF" transform="translate(0,0)"/>
<path d="" fill="#FFFFFF" transform="translate(0,0)"/>
<path d="" fill="#FFFFFF" transform="translate(0,0)"/>
<path d="" fill="#FFFFFF" transform="translate(0,0)"/>
<path d="" fill="#FFFFFF" transform="translate(0,0)"/>
<path d="" fill="#FFFFFF" transform="translate(0,0)"/>
<path d="" fill="#FFFFFF" transform="translate(0,0)"/>
<path d="" fill="#FFFFFF" transform="translate(0,0)"/>
<path d="" fill="#FFFFFF" transform="translate(0,0)"/>
<path d="" fill="#FFFFFF" transform="translate(0,0)"/>
<path d="" fill="#FFFFFF" transform="translate(0,0)"/>
<path d="" fill="#FFFFFF" transform="translate(0,0)"/>
<path d="" fill="#FFFFFF" transform="translate(0,0)"/>
<path d="" fill="#FFFFFF" transform="translate(0,0)"/>
<path d="" fill="#FFFFFF" transform="translate(0,0)"/>
<path d="" fill="#FFFFFF" transform="translate(0,0)"/>
<path d="" fill="#FFFFFF" transform="translate(0,0)"/>
<path d="" fill="#FFFFFF" transform="translate(0,0)"/>
<path d="" fill="#FFFFFF" transform="translate(0,0)"/>
<path d="" fill="#FFFFFF" transform="translate(0,0)"/>
<path d="" fill="#FFFFFF" transform="translate(0,0)"/>
<path d="" fill="#FFFFFF" transform="translate(0,0)"/>
<path d="" fill="#FFFFFF" transform="translate(0,0)"/>
<path d="" fill="#FFFFFF" transform="translate(0,0)"/>
<path d="" fill="#FFFFFF" transform="translate(0,0)"/>
<path d="" fill="#FFFFFF" transform="translate(0,0)"/>
<path d="" fill="#FFFFFF" transform="translate(0,0)"/>
<path d="" fill="#FFFFFF" transform="translate(0,0)"/>
<path d="" fill="#FFFFFF" transform="translate(0,0)"/>
<path d="" fill="#FFFFFF" transform="translate(0,0)"/>
<path d="" fill="#FFFFFF" transform="translate(0,0)"/>
<path d="" fill="#FFFFFF" transform="translate(0,0)"/>
<path d="" fill="#FFFFFF" transform="translate(0,0)"/>
</svg>
