<svg xmlns="http://www.w3.org/2000/svg" width="512" height="512" viewBox="0 0 512 512">
<g>
<path d="M 44.00 478.08 C44.00,478.59 43.55,479.00 43.00,479.00 C41.99,479.00 41.61,477.62 41.95,475.15 C42.05,474.41 41.72,474.05 41.22,474.37 C37.86,476.44 37.12,459.73 40.40,456.11 C41.88,454.48 42.61,454.26 43.68,455.15 C44.75,456.04 45.38,455.87 46.46,454.40 C47.23,453.35 47.44,452.35 46.92,452.16 C46.41,451.98 46.24,451.42 46.55,450.91 C46.86,450.41 46.61,450.00 45.99,450.00 C44.59,450.00 47.95,446.52 49.43,446.44 C50.02,446.40 51.08,446.81 51.78,447.34 C52.67,448.00 53.49,447.72 54.45,446.40 C55.48,445.00 55.53,444.32 54.66,443.77 C54.02,443.36 53.95,443.02 54.50,443.00 C55.05,442.98 54.89,442.59 54.15,442.12 C52.41,441.01 57.53,439.11 61.17,439.51 C63.49,439.77 63.70,439.48 63.60,436.15 C63.52,433.16 63.09,432.44 61.24,432.18 C59.99,432.00 59.23,431.44 59.54,430.93 C59.86,430.42 59.63,430.00 59.02,430.00 C58.24,430.00 58.23,429.43 58.99,428.02 C59.84,426.43 59.66,425.80 58.02,424.78 C56.01,423.52 56.00,423.07 56.00,256.54 L 56.00 89.56 L 58.66 87.28 C60.12,86.03 60.73,85.00 60.02,85.00 C59.08,85.00 58.92,83.99 59.42,81.25 C59.80,79.19 60.20,75.88 60.30,73.89 C60.57,68.91 66.02,61.41 68.63,62.41 C69.42,62.72 70.00,62.29 70.00,61.41 C70.00,60.57 70.37,60.11 70.83,60.40 C71.29,60.68 71.48,58.91 71.27,56.46 C71.02,53.74 71.28,52.00 71.93,52.00 C72.51,52.00 74.12,51.01 75.51,49.81 C76.90,48.60 78.80,47.50 79.75,47.36 C80.69,47.22 81.61,46.66 81.80,46.11 C81.98,45.56 82.85,45.39 83.73,45.73 C84.79,46.13 85.09,45.95 84.61,45.17 C84.20,44.52 84.43,44.00 85.11,44.00 C85.78,44.00 86.06,43.73 85.73,43.39 C85.39,43.06 85.94,41.91 86.94,40.84 C88.52,39.13 91.15,38.31 95.81,38.07 C96.53,38.03 96.89,37.64 96.62,37.20 C96.35,36.75 97.45,35.89 99.06,35.28 C100.68,34.67 102.00,34.48 102.00,34.85 C102.00,35.22 102.95,36.11 104.10,36.83 C105.26,37.56 105.91,37.66 105.55,37.07 C104.98,36.17 106.12,35.79 108.58,36.07 C108.89,36.10 109.96,35.20 110.94,34.07 C112.73,32.01 112.98,32.00 206.87,32.00 L 301.00 32.00 L 301.00 76.42 C301.00,105.82 300.65,120.95 299.98,121.17 C299.41,121.36 298.67,123.27 298.32,125.41 C297.82,128.49 297.97,129.14 299.00,128.50 C299.97,127.90 300.18,128.22 299.79,129.71 C299.41,131.14 299.72,131.70 300.84,131.62 C302.48,131.50 305.08,135.77 305.19,138.77 C305.23,139.72 304.99,141.85 304.66,143.50 C303.98,146.92 305.85,151.43 308.03,151.63 C308.84,151.71 310.23,151.82 311.13,151.88 C312.48,151.98 312.70,153.09 312.48,158.44 C312.24,163.90 312.51,165.15 314.27,166.69 C315.41,167.68 316.01,167.94 315.61,167.25 C314.67,165.63 316.21,165.63 317.95,167.25 C318.92,168.16 319.11,168.17 318.61,167.29 C318.14,166.45 318.76,166.51 320.64,167.49 C322.60,168.51 323.87,168.61 325.27,167.85 C326.34,167.28 328.69,167.09 330.49,167.43 C333.86,168.06 335.63,166.41 335.09,163.14 C334.73,160.98 338.52,157.92 339.87,159.27 C341.32,160.72 344.14,157.22 343.43,154.86 C342.69,152.39 345.82,149.61 347.64,151.11 C348.77,152.05 349.35,151.90 350.45,150.40 C351.48,149.00 351.53,148.32 350.66,147.77 C350.02,147.36 349.95,147.02 350.50,147.00 C351.05,146.98 350.90,146.59 350.18,146.13 C349.10,145.45 349.15,144.99 350.43,143.72 C353.63,140.51 352.10,136.59 347.50,136.21 C342.55,135.80 342.33,135.72 342.33,134.33 C342.33,133.60 342.82,132.99 343.42,132.98 C344.12,132.97 344.15,132.71 343.50,132.23 C342.95,131.83 342.50,130.82 342.50,130.00 C342.50,128.96 341.44,128.49 339.04,128.48 C336.22,128.46 335.45,128.00 334.89,125.98 C333.67,121.58 333.99,48.19 335.22,50.75 C335.82,51.99 336.71,53.00 337.21,53.00 C337.71,53.00 337.86,53.42 337.54,53.93 C336.71,55.28 338.99,56.41 340.17,55.23 C342.60,52.80 347.21,56.84 345.02,59.47 C343.69,61.08 347.10,64.28 349.25,63.46 C350.19,63.10 351.79,63.94 353.35,65.62 C354.75,67.13 356.58,68.47 357.41,68.59 C358.25,68.71 360.18,69.71 361.71,70.80 C363.25,71.89 364.84,72.83 365.25,72.89 C365.66,72.95 366.05,73.34 366.11,73.75 C366.38,75.49 372.15,80.03 373.28,79.38 C373.95,78.99 374.16,79.05 373.75,79.51 C373.33,79.96 373.70,81.11 374.55,82.06 C375.41,83.00 376.18,84.73 376.27,85.89 C376.37,87.22 377.11,88.00 378.27,88.00 C379.29,88.00 379.88,87.61 379.59,87.14 C379.29,86.66 380.05,86.33 381.28,86.39 C383.13,86.48 383.60,87.24 384.10,91.00 C384.43,93.47 384.77,95.05 384.87,94.50 C384.96,93.93 385.34,93.99 385.77,94.65 C386.79,96.27 396.80,96.95 398.01,95.49 C399.07,94.21 401.84,94.16 403.83,95.40 C404.65,95.90 405.64,95.51 406.50,94.35 C407.25,93.33 407.44,92.35 406.92,92.16 C406.41,91.98 406.24,91.42 406.55,90.91 C406.86,90.41 406.56,90.00 405.87,90.00 C405.18,90.00 405.49,89.36 406.55,88.59 C407.61,87.81 408.82,87.39 409.24,87.65 C409.66,87.91 410.00,87.59 410.00,86.94 C410.00,86.07 410.40,86.09 411.53,87.03 C412.80,88.08 413.31,87.97 414.49,86.40 C415.28,85.35 415.70,83.76 415.43,82.86 C414.69,80.39 417.82,77.61 419.64,79.11 C420.77,80.05 421.35,79.90 422.46,78.40 C423.23,77.35 423.44,76.35 422.92,76.16 C422.41,75.98 422.24,75.42 422.55,74.91 C422.86,74.41 422.56,74.00 421.87,74.00 C421.18,74.00 421.49,73.36 422.55,72.59 C423.61,71.81 424.82,71.39 425.24,71.65 C425.66,71.91 426.00,71.59 426.00,70.94 C426.00,70.07 426.40,70.09 427.53,71.03 C428.80,72.08 429.31,71.97 430.50,70.40 C431.30,69.35 431.75,67.94 431.50,67.25 C431.26,66.56 431.47,64.99 431.97,63.75 C432.47,62.51 432.90,61.96 432.94,62.53 C432.97,63.10 434.08,63.65 435.40,63.76 C438.35,64.01 439.20,62.43 439.84,55.50 C439.95,54.38 440.35,53.94 440.77,54.50 C441.17,55.05 442.46,55.63 443.63,55.79 C446.29,56.16 447.21,54.35 447.84,47.50 C447.95,46.38 448.35,45.94 448.77,46.50 C449.17,47.05 450.46,47.63 451.63,47.79 C453.84,48.10 454.98,46.50 455.72,42.02 C455.94,40.66 456.59,39.00 457.15,38.32 C457.71,37.64 457.84,36.55 457.43,35.89 C456.96,35.13 457.12,34.95 457.85,35.40 C458.48,35.80 459.00,36.72 459.00,37.45 C459.00,39.11 460.63,39.71 464.50,39.46 C468.91,39.17 469.00,39.13 469.00,37.56 C469.00,36.77 469.52,35.80 470.15,35.40 C470.90,34.95 471.04,35.13 470.55,35.92 C470.10,36.65 470.61,37.92 471.78,39.01 C473.37,40.49 473.78,42.19 473.81,47.42 C473.85,53.34 473.59,54.17 471.20,56.06 C469.52,57.38 468.41,57.73 468.17,57.01 C467.54,55.13 464.16,58.90 464.68,60.89 C464.98,62.03 464.22,63.28 462.57,64.36 C460.89,65.47 460.00,65.64 460.00,64.87 C460.00,64.17 459.19,64.42 458.02,65.48 C456.94,66.46 456.29,67.66 456.59,68.14 C457.55,69.70 455.99,72.77 453.97,73.30 C452.89,73.58 452.00,73.34 452.00,72.75 C452.00,72.17 451.11,72.49 450.02,73.48 C448.94,74.46 448.29,75.66 448.59,76.14 C448.89,76.62 448.86,77.88 448.52,78.93 C448.07,80.36 447.19,80.75 445.04,80.48 C441.56,80.04 440.83,81.23 440.16,88.50 C440.05,89.62 439.65,90.06 439.23,89.50 C437.23,86.78 431.49,89.50 432.68,92.61 C432.93,93.26 432.10,94.76 430.83,95.94 C429.47,97.21 428.38,97.64 428.16,96.98 C427.54,95.13 424.17,98.93 424.68,100.89 C424.98,102.03 424.22,103.28 422.57,104.36 C420.89,105.47 420.00,105.64 420.00,104.87 C420.00,104.15 419.26,104.36 418.11,105.40 C417.07,106.34 416.43,107.91 416.68,108.89 C416.98,110.03 416.22,111.28 414.57,112.36 C412.89,113.47 412.00,113.64 412.00,112.87 C412.00,112.17 411.19,112.42 410.02,113.48 C408.94,114.46 408.28,115.64 408.55,116.09 C408.83,116.54 408.78,118.03 408.44,119.39 C407.89,121.58 407.51,121.76 405.28,120.92 C403.28,120.15 402.49,120.32 401.47,121.72 C400.76,122.69 400.40,123.85 400.68,124.30 C400.96,124.75 400.92,126.20 400.58,127.53 C400.04,129.70 399.72,129.83 397.47,128.80 C395.36,127.84 394.75,127.96 393.59,129.54 C392.84,130.57 392.41,131.91 392.64,132.51 C392.87,133.11 391.92,134.67 390.53,135.97 C388.95,137.46 388.00,137.85 388.00,137.02 C388.00,136.07 387.44,136.20 386.02,137.48 C384.94,138.46 384.28,139.64 384.55,140.09 C385.64,141.84 383.86,145.57 381.95,145.57 C380.88,145.57 380.00,145.15 380.00,144.63 C380.00,144.11 379.15,144.46 378.11,145.40 C377.03,146.38 376.43,147.91 376.70,148.98 C376.97,150.00 376.71,151.66 376.13,152.67 C375.54,153.68 375.05,154.04 375.03,153.47 C375.01,152.90 373.92,152.35 372.60,152.24 C370.19,152.04 368.93,153.62 368.52,157.34 C368.27,159.63 366.03,161.12 363.87,160.45 C362.91,160.15 361.92,160.67 361.47,161.72 C360.73,163.47 360.53,164.48 360.16,168.50 C360.05,169.62 359.65,170.06 359.23,169.50 C358.01,167.84 354.56,168.03 353.54,169.82 C352.51,171.61 352.40,172.10 352.14,176.00 C352.04,177.38 351.64,178.05 351.23,177.50 C349.28,174.84 343.48,177.48 344.64,180.51 C344.87,181.11 343.92,182.67 342.53,183.97 C340.95,185.46 340.00,185.85 340.00,185.02 C340.00,184.05 339.49,184.15 338.11,185.40 C337.07,186.34 336.43,187.91 336.68,188.89 C336.98,190.03 336.22,191.28 334.57,192.36 C332.89,193.47 332.00,193.64 332.00,192.87 C332.00,192.15 331.26,192.36 330.11,193.40 C329.07,194.34 328.43,195.91 328.68,196.89 C328.98,198.03 328.22,199.28 326.57,200.36 C324.89,201.47 324.00,201.64 324.00,200.87 C324.00,200.15 323.26,200.36 322.11,201.40 C321.07,202.34 320.43,203.91 320.68,204.89 C320.98,206.03 320.22,207.28 318.57,208.36 C316.89,209.47 316.00,209.64 316.00,208.87 C316.00,208.15 315.26,208.36 314.11,209.40 C313.07,210.34 312.43,211.91 312.68,212.89 C312.98,214.03 312.22,215.28 310.57,216.36 C308.89,217.47 308.00,217.64 308.00,216.87 C308.00,216.15 307.26,216.36 306.11,217.40 C305.07,218.34 304.43,219.91 304.68,220.89 C304.98,222.03 304.22,223.28 302.57,224.36 C300.89,225.47 300.00,225.64 300.00,224.87 C300.00,224.15 299.26,224.36 298.11,225.40 C297.07,226.34 296.43,227.91 296.68,228.89 C296.98,230.03 296.22,231.28 294.57,232.36 C292.89,233.47 292.00,233.64 292.00,232.87 C292.00,232.16 291.23,232.39 290.07,233.44 C289.00,234.40 288.35,235.74 288.60,236.41 C288.86,237.08 288.63,238.73 288.10,240.07 C287.56,241.40 287.10,242.03 287.06,241.46 C287.03,240.89 285.99,240.42 284.75,240.41 C282.32,240.39 279.96,242.74 280.64,244.51 C280.87,245.11 279.92,246.67 278.53,247.97 C276.95,249.46 276.00,249.85 276.00,249.02 C276.00,248.06 275.46,248.17 274.07,249.44 C273.00,250.40 272.35,251.74 272.60,252.41 C272.86,253.08 272.63,254.73 272.10,256.07 C271.56,257.40 271.10,258.04 271.06,257.47 C271.03,256.90 269.92,256.35 268.60,256.24 C265.70,256.00 264.54,258.02 264.14,264.00 C264.04,265.38 263.64,266.05 263.23,265.50 C262.83,264.95 261.54,264.37 260.37,264.21 C258.25,263.92 256.93,265.66 256.53,269.27 C256.30,271.35 252.67,274.34 252.15,272.87 C251.53,271.15 248.19,275.03 248.68,276.89 C248.98,278.03 248.22,279.28 246.57,280.36 C244.89,281.47 244.00,281.64 244.00,280.87 C244.00,280.15 243.26,280.36 242.11,281.40 C241.07,282.34 240.43,283.91 240.68,284.89 C240.98,286.03 240.22,287.28 238.57,288.36 C236.89,289.47 236.00,289.64 236.00,288.87 C236.00,288.15 235.26,288.36 234.11,289.40 C233.07,290.34 232.43,291.91 232.68,292.89 C232.98,294.03 232.22,295.28 230.57,296.36 C228.89,297.47 228.00,297.64 228.00,296.87 C228.00,296.15 227.26,296.36 226.11,297.40 C225.07,298.34 224.43,299.91 224.68,300.89 C224.98,302.03 224.22,303.28 222.57,304.36 C220.89,305.47 220.00,305.64 220.00,304.87 C220.00,304.15 219.26,304.36 218.11,305.40 C217.07,306.34 216.43,307.91 216.68,308.89 C216.98,310.03 216.22,311.28 214.57,312.36 C212.89,313.47 212.00,313.64 212.00,312.87 C212.00,312.15 211.26,312.36 210.11,313.40 C209.07,314.34 208.43,315.91 208.68,316.89 C208.98,318.03 208.22,319.28 206.57,320.36 C204.89,321.47 204.00,321.64 204.00,320.87 C204.00,320.15 203.26,320.36 202.11,321.40 C201.07,322.34 200.43,323.91 200.68,324.89 C200.98,326.03 200.22,327.28 198.57,328.36 C196.89,329.47 196.00,329.64 196.00,328.87 C196.00,328.15 195.26,328.36 194.11,329.40 C193.07,330.34 192.43,331.91 192.68,332.89 C192.98,334.03 192.22,335.28 190.57,336.36 C188.89,337.47 188.00,337.64 188.00,336.87 C188.00,336.15 187.26,336.36 186.11,337.40 C185.07,338.34 184.43,339.91 184.68,340.89 C184.98,342.03 184.22,343.28 182.57,344.36 C180.89,345.47 180.00,345.64 180.00,344.87 C180.00,344.15 179.26,344.36 178.11,345.40 C177.07,346.34 176.43,347.91 176.68,348.89 C176.98,350.03 176.22,351.28 174.57,352.36 C172.89,353.47 172.00,353.64 172.00,352.87 C172.00,352.15 171.26,352.36 170.11,353.40 C169.07,354.34 168.43,355.91 168.68,356.89 C168.98,358.03 168.22,359.28 166.57,360.36 C164.89,361.47 164.00,361.64 164.00,360.87 C164.00,360.15 163.26,360.36 162.11,361.40 C161.07,362.34 160.43,363.91 160.68,364.89 C160.98,366.03 160.22,367.28 158.57,368.36 C156.89,369.47 156.00,369.64 156.00,368.87 C156.00,368.15 155.26,368.36 154.11,369.40 C153.07,370.34 152.43,371.91 152.68,372.89 C152.98,374.03 152.22,375.28 150.57,376.36 C148.89,377.47 148.00,377.64 148.00,376.87 C148.00,376.15 147.26,376.36 146.11,377.40 C145.07,378.34 144.43,379.91 144.68,380.89 C144.98,382.03 144.22,383.28 142.57,384.36 C140.89,385.47 140.00,385.64 140.00,384.87 C140.00,384.15 139.26,384.36 138.11,385.40 C137.07,386.34 136.43,387.91 136.68,388.89 C136.98,390.03 136.22,391.28 134.57,392.36 C132.89,393.47 132.00,393.64 132.00,392.87 C132.00,392.15 131.26,392.36 130.11,393.40 C129.07,394.34 128.43,395.91 128.68,396.89 C128.98,398.03 128.22,399.28 126.57,400.36 C124.89,401.47 124.00,401.64 124.00,400.87 C124.00,400.15 123.26,400.36 122.11,401.40 C121.07,402.34 120.43,403.91 120.68,404.89 C120.98,406.03 120.22,407.28 118.57,408.36 C116.89,409.47 116.00,409.64 116.00,408.87 C116.00,408.15 115.26,408.36 114.11,409.40 C113.07,410.34 112.43,411.91 112.68,412.89 C112.98,414.03 112.22,415.28 110.57,416.36 C108.89,417.47 108.00,417.64 108.00,416.87 C108.00,416.17 107.19,416.42 106.02,417.48 C104.94,418.46 104.29,419.66 104.59,420.14 C105.55,421.70 103.99,424.77 101.97,425.30 C100.89,425.58 100.00,425.34 100.00,424.75 C100.00,424.17 99.15,424.46 98.11,425.40 C97.07,426.34 96.43,427.91 96.68,428.89 C96.98,430.03 96.22,431.28 94.57,432.36 C92.89,433.47 92.00,433.64 92.00,432.87 C92.00,432.15 91.26,432.36 90.11,433.40 C89.07,434.34 88.43,435.91 88.68,436.89 C88.98,438.03 88.22,439.28 86.57,440.36 C84.89,441.47 84.00,441.64 84.00,440.87 C84.00,440.16 83.23,440.39 82.07,441.44 C81.00,442.40 80.35,443.74 80.60,444.41 C80.86,445.08 80.63,446.73 80.10,448.07 C79.56,449.40 79.10,450.03 79.06,449.46 C78.97,447.87 74.64,448.21 73.36,449.91 C72.73,450.74 72.43,451.95 72.68,452.61 C73.29,454.21 68.83,458.34 67.97,456.95 C67.17,455.66 64.61,458.51 64.45,460.86 C64.13,465.56 63.91,466.42 63.23,465.50 C62.01,463.84 58.56,464.03 57.56,465.82 C57.04,466.74 56.51,468.55 56.37,469.82 C56.23,471.10 55.65,472.71 55.08,473.40 C54.51,474.09 54.24,475.63 54.47,476.82 C54.74,478.25 54.39,479.00 53.44,479.00 C51.88,479.00 51.45,477.37 52.88,476.83 C53.37,476.65 53.39,475.51 52.91,474.25 C52.22,472.42 51.30,472.00 48.00,472.00 C44.70,472.00 43.78,472.42 43.09,474.25 C42.61,475.51 42.63,476.65 43.12,476.83 C43.60,477.02 44.00,477.58 44.00,478.08 ZM 401.00 478.50 C399.90,479.82 382.55,480.00 255.88,480.00 L 112.00 480.00 L 111.85 477.75 C111.49,472.51 111.67,471.51 112.91,471.79 C113.63,471.94 114.92,471.49 115.80,470.79 C117.01,469.80 117.21,469.80 116.63,470.75 C115.61,472.46 116.82,472.33 118.61,470.53 C119.42,469.73 120.17,467.75 120.29,466.13 C120.40,464.52 120.86,463.41 121.29,463.68 C121.73,463.95 122.83,463.57 123.74,462.84 C124.91,461.88 125.17,461.86 124.63,462.75 C123.61,464.46 124.82,464.33 126.61,462.53 C127.42,461.73 128.17,459.75 128.29,458.13 C128.40,456.52 128.86,455.41 129.29,455.68 C129.73,455.95 130.83,455.57 131.74,454.84 C132.91,453.88 133.17,453.86 132.63,454.75 C131.61,456.46 132.82,456.33 134.61,454.53 C135.42,453.73 136.17,451.78 136.29,450.20 C136.47,447.80 136.90,447.38 138.94,447.60 C142.00,447.93 144.91,444.76 144.55,441.48 C144.40,440.15 144.69,439.31 145.18,439.61 C145.68,439.92 146.83,439.57 147.74,438.84 C148.91,437.88 149.17,437.86 148.63,438.75 C147.61,440.46 148.82,440.33 150.61,438.53 C151.42,437.73 152.17,435.78 152.29,434.20 C152.47,431.69 152.85,431.36 155.25,431.64 C156.93,431.84 158.01,431.48 158.02,430.73 C158.03,429.94 158.37,430.03 159.00,431.00 C159.99,432.53 160.16,431.79 160.34,425.41 C160.39,423.80 160.96,423.38 162.84,423.59 C165.94,423.93 168.02,421.87 168.29,418.20 C168.46,415.82 168.90,415.38 170.89,415.59 C173.95,415.93 176.02,413.86 176.29,410.20 C176.46,407.82 176.90,407.38 178.89,407.59 C181.95,407.93 184.02,405.86 184.29,402.20 C184.46,399.82 184.90,399.38 186.89,399.59 C189.95,399.93 192.02,397.86 192.29,394.20 C192.46,391.82 192.90,391.38 194.89,391.59 C197.95,391.93 200.02,389.86 200.29,386.20 C200.46,383.82 200.90,383.38 202.89,383.59 C205.95,383.93 208.02,381.86 208.29,378.20 C208.46,375.82 208.90,375.38 210.89,375.59 C213.95,375.93 216.02,373.86 216.29,370.20 C216.46,367.82 216.90,367.38 218.89,367.59 C223.05,368.05 225.40,363.76 223.04,360.03 C220.56,356.11 222.04,356.00 278.58,356.00 C318.00,356.00 333.61,356.32 335.48,357.17 C337.30,358.00 338.37,358.03 339.12,357.28 C339.87,356.53 340.95,356.61 342.79,357.57 C344.47,358.44 345.80,358.58 346.54,357.97 C347.17,357.44 347.98,357.32 348.35,357.69 C349.13,358.46 353.00,354.59 353.00,353.04 C353.00,352.47 353.71,352.00 354.57,352.00 C355.44,352.00 356.82,351.33 357.64,350.50 C358.47,349.67 358.77,349.00 358.32,349.00 C357.87,349.00 357.39,347.99 357.26,346.75 C356.25,337.07 356.11,334.67 356.61,335.79 C357.38,337.51 360.01,335.43 359.98,333.13 C359.95,329.86 358.06,328.40 353.42,328.08 C352.82,328.03 352.32,327.44 352.29,326.75 C352.13,321.44 350.17,320.30 342.69,321.12 C337.52,321.68 275.49,321.64 269.66,321.07 C267.96,320.90 267.98,320.75 269.94,319.05 C271.11,318.04 272.16,315.89 272.28,314.27 C272.46,311.81 272.89,311.37 274.89,311.59 C277.95,311.93 280.02,309.86 280.29,306.20 C280.46,303.82 280.90,303.38 282.89,303.59 C285.95,303.93 288.02,301.86 288.29,298.20 C288.46,295.82 288.90,295.38 290.89,295.59 C292.21,295.74 293.91,295.23 294.68,294.46 C295.45,293.69 296.17,291.78 296.29,290.20 C296.46,287.82 296.90,287.38 298.89,287.59 C300.21,287.74 301.91,287.23 302.68,286.46 C303.45,285.69 304.17,283.78 304.29,282.20 C304.46,279.82 304.90,279.38 306.89,279.59 C309.92,279.92 312.00,277.88 312.00,274.57 L 312.00 272.00 L 329.25 271.89 C338.74,271.83 347.51,271.86 348.75,271.96 C351.31,272.17 357.50,266.62 356.51,265.01 C356.16,264.45 356.36,264.00 356.94,264.00 C357.52,264.00 358.00,262.62 358.00,260.94 C358.00,259.16 357.58,258.14 357.00,258.50 C356.42,258.86 356.00,257.84 356.00,256.06 C356.00,254.38 356.45,253.00 357.00,253.00 C357.55,253.00 358.00,251.88 358.00,250.50 C358.00,249.12 357.52,248.00 356.94,248.00 C356.36,248.00 356.14,247.59 356.45,247.08 C356.76,246.58 355.87,244.81 354.46,243.14 C352.42,240.72 351.97,239.23 352.21,235.72 C352.47,231.75 352.73,231.36 354.89,231.59 C357.94,231.93 360.02,229.86 360.29,226.20 C360.46,223.82 360.90,223.38 362.89,223.59 C365.95,223.93 368.02,221.86 368.29,218.20 C368.46,215.82 368.90,215.38 370.89,215.59 C373.95,215.93 376.02,213.86 376.29,210.20 C376.46,207.82 376.90,207.38 378.89,207.59 C381.95,207.93 384.02,205.86 384.29,202.20 C384.46,199.82 384.90,199.38 386.89,199.59 C389.95,199.93 392.02,197.86 392.29,194.20 C392.46,191.82 392.90,191.38 394.89,191.59 C397.95,191.93 400.02,189.86 400.29,186.20 C400.46,183.82 400.90,183.38 402.89,183.59 C405.92,183.92 408.00,181.88 408.00,178.57 L 408.00 176.00 L 456.01 176.00 L 455.75 300.75 C455.55,399.67 455.24,425.53 454.25,425.62 C453.56,425.69 452.48,425.81 451.85,425.88 C451.21,425.94 451.77,426.94 453.09,428.08 C455.27,429.97 455.34,430.28 453.85,431.37 C451.73,432.92 449.37,438.80 449.59,442.00 C449.77,444.73 444.65,450.52 442.97,449.48 C442.44,449.15 442.00,449.61 442.00,450.50 C442.00,451.39 441.65,451.90 441.22,451.64 C440.80,451.37 440.50,452.81 440.56,454.83 C440.65,457.64 440.01,459.15 437.85,461.25 C436.29,462.76 435.35,464.03 435.76,464.07 C437.60,464.24 432.18,465.87 429.50,465.95 C427.85,465.99 426.99,466.36 427.60,466.77 C428.32,467.25 427.90,468.28 426.35,469.79 C425.06,471.04 424.00,471.77 424.00,471.41 C424.00,471.05 423.44,471.20 422.75,471.75 C422.06,472.29 419.80,473.05 417.72,473.42 C415.64,473.79 414.19,474.50 414.49,474.98 C414.79,475.47 413.66,475.83 411.98,475.78 C410.30,475.73 408.69,475.31 408.41,474.85 C407.44,473.29 404.02,473.88 404.64,475.50 C404.99,476.42 404.64,477.00 403.73,477.00 C402.91,477.00 401.68,477.67 401.00,478.50 ZM 161.17 190.34 C162.04,191.27 164.24,191.48 168.94,191.07 C175.94,190.46 250.90,190.51 262.33,191.13 C268.13,191.44 269.37,191.22 270.54,189.61 C271.47,188.35 271.62,187.16 271.01,186.02 C270.43,184.94 270.48,183.92 271.12,183.28 C272.20,182.20 271.74,163.11 270.49,157.34 C269.86,154.46 269.42,154.16 265.42,153.84 C260.19,153.42 258.96,153.73 259.57,155.31 C260.25,157.08 178.05,157.02 176.18,155.25 C174.27,153.45 172.01,153.71 171.96,155.75 C171.93,157.23 171.74,157.18 170.71,155.40 C170.05,154.24 168.87,153.51 168.11,153.78 C167.35,154.04 166.99,153.83 167.31,153.30 C167.64,152.77 166.96,152.41 165.80,152.50 C163.52,152.66 160.00,156.37 160.00,158.61 C160.00,159.47 158.92,160.00 157.16,160.00 C153.68,160.00 151.20,164.06 153.37,166.22 C154.08,166.94 154.49,168.02 154.29,168.64 C154.08,169.26 154.61,170.46 155.46,171.31 C157.32,173.18 157.47,174.39 155.74,173.73 C154.22,173.15 152.44,174.95 152.52,177.00 C152.64,179.99 155.39,184.06 157.67,184.63 C159.69,185.14 160.09,185.81 159.98,188.52 C159.97,188.81 160.50,189.62 161.17,190.34 ZM 158.12 269.45 L 160.97 271.85 L 190.74 271.93 C207.16,271.97 221.13,271.60 221.92,271.09 C223.91,269.80 224.13,243.28 222.17,241.31 C221.11,240.25 214.65,240.01 190.83,240.12 C160.95,240.27 160.82,240.28 158.06,242.61 C156.53,243.89 154.99,244.73 154.64,244.47 C154.29,244.21 154.23,244.30 154.50,244.67 C154.78,245.04 154.22,246.24 153.25,247.34 C152.19,248.56 152.06,249.02 152.92,248.51 C153.98,247.88 154.18,248.09 153.70,249.34 C153.29,250.42 153.76,251.46 155.03,252.25 C157.37,253.71 157.69,258.52 155.50,259.36 C154.68,259.68 154.00,260.88 154.00,262.03 C154.00,263.42 153.58,263.88 152.75,263.39 C152.06,262.99 152.29,263.56 153.25,264.66 C154.22,265.76 154.78,266.96 154.50,267.33 C154.23,267.70 154.29,267.79 154.64,267.53 C154.99,267.27 156.56,268.13 158.12,269.45 Z" fill="rgb(0,0,0)"/>
<path d="M 44.00 478.08 C44.00,477.58 43.60,477.02 43.12,476.83 C42.63,476.65 42.61,475.51 43.09,474.25 C43.78,472.42 44.70,472.00 48.00,472.00 C51.30,472.00 52.22,472.42 52.91,474.25 C53.39,475.51 53.37,476.65 52.88,476.83 C51.45,477.37 51.88,479.00 53.44,479.00 C54.39,479.00 54.74,478.25 54.47,476.82 C54.24,475.63 54.51,474.09 55.08,473.40 C55.65,472.71 56.23,471.10 56.37,469.82 C56.51,468.55 57.04,466.74 57.56,465.82 C58.56,464.03 62.01,463.84 63.23,465.50 C63.91,466.42 64.13,465.56 64.45,460.86 C64.61,458.51 67.17,455.66 67.97,456.95 C68.83,458.34 73.29,454.21 72.68,452.61 C72.43,451.95 72.73,450.74 73.36,449.91 C74.64,448.21 78.97,447.87 79.06,449.46 C79.10,450.03 79.56,449.40 80.10,448.07 C80.63,446.73 80.86,445.08 80.60,444.41 C80.35,443.74 81.00,442.40 82.07,441.44 C83.23,440.39 84.00,440.16 84.00,440.87 C84.00,441.64 84.89,441.47 86.57,440.36 C88.22,439.28 88.98,438.03 88.68,436.89 C88.43,435.91 89.07,434.34 90.11,433.40 C91.26,432.36 92.00,432.15 92.00,432.87 C92.00,433.64 92.89,433.47 94.57,432.36 C96.22,431.28 96.98,430.03 96.68,428.89 C96.43,427.91 97.07,426.34 98.11,425.40 C99.15,424.46 100.00,424.17 100.00,424.75 C100.00,425.34 100.89,425.58 101.97,425.30 C103.99,424.77 105.55,421.70 104.59,420.14 C104.29,419.66 104.94,418.46 106.02,417.48 C107.19,416.42 108.00,416.17 108.00,416.87 C108.00,417.64 108.89,417.47 110.57,416.36 C112.22,415.28 112.98,414.03 112.68,412.89 C112.43,411.91 113.07,410.34 114.11,409.40 C115.26,408.36 116.00,408.15 116.00,408.87 C116.00,409.64 116.89,409.47 118.57,408.36 C120.22,407.28 120.98,406.03 120.68,404.89 C120.43,403.91 121.07,402.34 122.11,401.40 C123.26,400.36 124.00,400.15 124.00,400.87 C124.00,401.64 124.89,401.47 126.57,400.36 C128.22,399.28 128.98,398.03 128.68,396.89 C128.43,395.91 129.07,394.34 130.11,393.40 C131.26,392.36 132.00,392.15 132.00,392.87 C132.00,393.64 132.89,393.47 134.57,392.36 C136.22,391.28 136.98,390.03 136.68,388.89 C136.43,387.91 137.07,386.34 138.11,385.40 C139.26,384.36 140.00,384.15 140.00,384.87 C140.00,385.64 140.89,385.47 142.57,384.36 C144.22,383.28 144.98,382.03 144.68,380.89 C144.43,379.91 145.07,378.34 146.11,377.40 C147.26,376.36 148.00,376.15 148.00,376.87 C148.00,377.64 148.89,377.47 150.57,376.36 C152.22,375.28 152.98,374.03 152.68,372.89 C152.43,371.91 153.07,370.34 154.11,369.40 C155.26,368.36 156.00,368.15 156.00,368.87 C156.00,369.64 156.89,369.47 158.57,368.36 C160.22,367.28 160.98,366.03 160.68,364.89 C160.43,363.91 161.07,362.34 162.11,361.40 C163.26,360.36 164.00,360.15 164.00,360.87 C164.00,361.64 164.89,361.47 166.57,360.36 C168.22,359.28 168.98,358.03 168.68,356.89 C168.43,355.91 169.07,354.34 170.11,353.40 C171.26,352.36 172.00,352.15 172.00,352.87 C172.00,353.64 172.89,353.47 174.57,352.36 C176.22,351.28 176.98,350.03 176.68,348.89 C176.43,347.91 177.07,346.34 178.11,345.40 C179.26,344.36 180.00,344.15 180.00,344.87 C180.00,345.64 180.89,345.47 182.57,344.36 C184.22,343.28 184.98,342.03 184.68,340.89 C184.43,339.91 185.07,338.34 186.11,337.40 C187.26,336.36 188.00,336.15 188.00,336.87 C188.00,337.64 188.89,337.47 190.57,336.36 C192.22,335.28 192.98,334.03 192.68,332.89 C192.43,331.91 193.07,330.34 194.11,329.40 C195.26,328.36 196.00,328.15 196.00,328.87 C196.00,329.64 196.89,329.47 198.57,328.36 C200.22,327.28 200.98,326.03 200.68,324.89 C200.43,323.91 201.07,322.34 202.11,321.40 C203.26,320.36 204.00,320.15 204.00,320.87 C204.00,321.64 204.89,321.47 206.57,320.36 C208.22,319.28 208.98,318.03 208.68,316.89 C208.43,315.91 209.07,314.34 210.11,313.40 C211.26,312.36 212.00,312.15 212.00,312.87 C212.00,313.64 212.89,313.47 214.57,312.36 C216.22,311.28 216.98,310.03 216.68,308.89 C216.43,307.91 217.07,306.34 218.11,305.40 C219.26,304.36 220.00,304.15 220.00,304.87 C220.00,305.64 220.89,305.47 222.57,304.36 C224.22,303.28 224.98,302.03 224.68,300.89 C224.43,299.91 225.07,298.34 226.11,297.40 C227.26,296.36 228.00,296.15 228.00,296.87 C228.00,297.64 228.89,297.47 230.57,296.36 C232.22,295.28 232.98,294.03 232.68,292.89 C232.43,291.91 233.07,290.34 234.11,289.40 C235.26,288.36 236.00,288.15 236.00,288.87 C236.00,289.64 236.89,289.47 238.57,288.36 C240.22,287.28 240.98,286.03 240.68,284.89 C240.43,283.91 241.07,282.34 242.11,281.40 C243.26,280.36 244.00,280.15 244.00,280.87 C244.00,281.64 244.89,281.47 246.57,280.36 C248.22,279.28 248.98,278.03 248.68,276.89 C248.19,275.03 251.53,271.15 252.15,272.87 C252.67,274.34 256.30,271.35 256.53,269.27 C256.93,265.66 258.25,263.92 260.37,264.21 C261.54,264.37 262.83,264.95 263.23,265.50 C263.64,266.05 264.04,265.38 264.14,264.00 C264.54,258.02 265.70,256.00 268.60,256.24 C269.92,256.35 271.03,256.90 271.06,257.47 C271.10,258.04 271.56,257.40 272.10,256.07 C272.63,254.73 272.86,253.08 272.60,252.41 C272.35,251.74 273.00,250.40 274.07,249.44 C275.46,248.17 276.00,248.06 276.00,249.02 C276.00,249.85 276.95,249.46 278.53,247.97 C279.92,246.67 280.87,245.11 280.64,244.51 C279.96,242.74 282.32,240.39 284.75,240.41 C285.99,240.42 287.03,240.89 287.06,241.46 C287.10,242.03 287.56,241.40 288.10,240.07 C288.63,238.73 288.86,237.08 288.60,236.41 C288.35,235.74 289.00,234.40 290.07,233.44 C291.23,232.39 292.00,232.16 292.00,232.87 C292.00,233.64 292.89,233.47 294.57,232.36 C296.22,231.28 296.98,230.03 296.68,228.89 C296.43,227.91 297.07,226.34 298.11,225.40 C299.26,224.36 300.00,224.15 300.00,224.87 C300.00,225.64 300.89,225.47 302.57,224.36 C304.22,223.28 304.98,222.03 304.68,220.89 C304.43,219.91 305.07,218.34 306.11,217.40 C307.26,216.36 308.00,216.15 308.00,216.87 C308.00,217.64 308.89,217.47 310.57,216.36 C312.22,215.28 312.98,214.03 312.68,212.89 C312.43,211.91 313.07,210.34 314.11,209.40 C315.26,208.36 316.00,208.15 316.00,208.87 C316.00,209.64 316.89,209.47 318.57,208.36 C320.22,207.28 320.98,206.03 320.68,204.89 C320.43,203.91 321.07,202.34 322.11,201.40 C323.26,200.36 324.00,200.15 324.00,200.87 C324.00,201.64 324.89,201.47 326.57,200.36 C328.22,199.28 328.98,198.03 328.68,196.89 C328.43,195.91 329.07,194.34 330.11,193.40 C331.26,192.36 332.00,192.15 332.00,192.87 C332.00,193.64 332.89,193.47 334.57,192.36 C336.22,191.28 336.98,190.03 336.68,188.89 C336.43,187.91 337.07,186.34 338.11,185.40 C339.49,184.15 340.00,184.05 340.00,185.02 C340.00,185.85 340.95,185.46 342.53,183.97 C343.92,182.67 344.87,181.11 344.64,180.51 C343.48,177.48 349.28,174.84 351.23,177.50 C351.64,178.05 352.04,177.38 352.14,176.00 C352.40,172.10 352.51,171.61 353.54,169.82 C354.56,168.03 358.01,167.84 359.23,169.50 C359.65,170.06 360.05,169.62 360.16,168.50 C360.53,164.48 360.73,163.47 361.47,161.72 C361.92,160.67 362.91,160.15 363.87,160.45 C366.03,161.12 368.27,159.63 368.52,157.34 C368.93,153.62 370.19,152.04 372.60,152.24 C373.92,152.35 375.01,152.90 375.03,153.47 C375.05,154.04 375.54,153.68 376.13,152.67 C376.71,151.66 376.97,150.00 376.70,148.98 C376.43,147.91 377.03,146.38 378.11,145.40 C379.15,144.46 380.00,144.11 380.00,144.63 C380.00,145.15 380.88,145.57 381.95,145.57 C383.86,145.57 385.64,141.84 384.55,140.09 C384.28,139.64 384.94,138.46 386.02,137.48 C387.44,136.20 388.00,136.07 388.00,137.02 C388.00,137.85 388.95,137.46 390.53,135.97 C391.92,134.67 392.87,133.11 392.64,132.51 C392.41,131.91 392.84,130.57 393.59,129.54 C394.75,127.96 395.36,127.84 397.47,128.80 C399.72,129.83 400.04,129.70 400.58,127.53 C400.92,126.20 400.96,124.75 400.68,124.30 C400.40,123.85 400.76,122.69 401.47,121.72 C402.49,120.32 403.28,120.15 405.28,120.92 C407.51,121.76 407.89,121.58 408.44,119.39 C408.78,118.03 408.83,116.54 408.55,116.09 C408.28,115.64 408.94,114.46 410.02,113.48 C411.19,112.42 412.00,112.17 412.00,112.87 C412.00,113.64 412.89,113.47 414.57,112.36 C416.22,111.28 416.98,110.03 416.68,108.89 C416.43,107.91 417.07,106.34 418.11,105.40 C419.26,104.36 420.00,104.15 420.00,104.87 C420.00,105.64 420.89,105.47 422.57,104.36 C424.22,103.28 424.98,102.03 424.68,100.89 C424.17,98.93 427.54,95.13 428.16,96.98 C428.38,97.64 429.47,97.21 430.83,95.94 C432.10,94.76 432.93,93.26 432.68,92.61 C431.49,89.50 437.23,86.78 439.23,89.50 C439.65,90.06 440.05,89.62 440.16,88.50 C440.83,81.23 441.56,80.04 445.04,80.48 C447.19,80.75 448.07,80.36 448.52,78.93 C448.86,77.88 448.89,76.62 448.59,76.14 C448.29,75.66 448.94,74.46 450.02,73.48 C451.11,72.49 452.00,72.17 452.00,72.75 C452.00,73.34 452.89,73.58 453.97,73.30 C455.99,72.77 457.55,69.70 456.59,68.14 C456.29,67.66 456.94,66.46 458.02,65.48 C459.19,64.42 460.00,64.17 460.00,64.87 C460.00,65.64 460.89,65.47 462.57,64.36 C464.22,63.28 464.98,62.03 464.68,60.89 C464.16,58.90 467.54,55.13 468.17,57.01 C468.41,57.73 469.52,57.38 471.20,56.06 C473.59,54.17 473.85,53.34 473.81,47.42 C473.78,42.19 473.37,40.49 471.78,39.01 C470.61,37.92 470.10,36.65 470.55,35.92 C471.04,35.13 470.90,34.95 470.15,35.40 C469.52,35.80 469.00,36.77 469.00,37.56 C469.00,39.13 468.91,39.17 464.50,39.46 C460.63,39.71 459.00,39.11 459.00,37.45 C459.00,36.72 458.48,35.80 457.85,35.40 C457.12,34.95 456.96,35.13 457.43,35.89 C457.84,36.55 457.71,37.64 457.15,38.32 C456.59,39.00 455.94,40.66 455.72,42.02 C454.98,46.50 453.84,48.10 451.63,47.79 C450.46,47.63 449.17,47.05 448.77,46.50 C448.35,45.94 447.95,46.38 447.84,47.50 C447.21,54.35 446.29,56.16 443.63,55.79 C442.46,55.63 441.17,55.05 440.77,54.50 C440.35,53.94 439.95,54.38 439.84,55.50 C439.20,62.43 438.35,64.01 435.40,63.76 C434.08,63.65 432.97,63.10 432.94,62.53 C432.90,61.96 432.47,62.51 431.97,63.75 C431.47,64.99 431.26,66.56 431.50,67.25 C431.75,67.94 431.30,69.35 430.50,70.40 C429.31,71.97 428.80,72.08 427.53,71.03 C426.40,70.09 426.00,70.07 426.00,70.94 C426.00,71.59 425.66,71.91 425.24,71.65 C424.82,71.39 423.61,71.81 422.55,72.59 C421.49,73.36 421.18,74.00 421.87,74.00 C422.56,74.00 422.86,74.41 422.55,74.91 C422.24,75.42 422.41,75.98 422.92,76.16 C423.44,76.35 423.23,77.35 422.46,78.40 C421.35,79.90 420.77,80.05 419.64,79.11 C417.82,77.61 414.69,80.39 415.43,82.86 C415.70,83.76 415.28,85.35 414.49,86.40 C413.31,87.97 412.80,88.08 411.53,87.03 C410.40,86.09 410.00,86.07 410.00,86.94 C410.00,87.59 409.66,87.91 409.24,87.65 C408.82,87.39 407.61,87.81 406.55,88.59 C405.49,89.36 405.18,90.00 405.87,90.00 C406.56,90.00 406.86,90.41 406.55,90.91 C406.24,91.42 406.41,91.98 406.92,92.16 C407.44,92.35 407.25,93.33 406.50,94.35 C405.64,95.51 404.65,95.90 403.83,95.40 C401.84,94.16 399.07,94.21 398.01,95.49 C396.80,96.95 386.79,96.27 385.77,94.65 C385.34,93.99 384.96,93.93 384.87,94.50 C384.77,95.05 384.43,93.47 384.10,91.00 C383.60,87.24 383.13,86.48 381.28,86.39 C380.05,86.33 379.29,86.66 379.59,87.14 C379.88,87.61 379.29,88.00 378.27,88.00 C377.11,88.00 376.37,87.22 376.27,85.89 C376.18,84.73 375.41,83.00 374.55,82.06 C373.70,81.11 373.33,79.96 373.75,79.51 C374.16,79.05 373.95,78.99 373.28,79.38 C372.15,80.03 366.38,75.49 366.11,73.75 C366.05,73.34 365.66,72.95 365.25,72.89 C364.84,72.83 363.25,71.89 361.71,70.80 C360.18,69.71 358.25,68.71 357.41,68.59 C356.58,68.47 354.75,67.13 353.35,65.62 C351.79,63.94 350.19,63.10 349.25,63.46 C347.10,64.28 343.69,61.08 345.02,59.47 C347.21,56.84 342.60,52.80 340.17,55.23 C338.99,56.41 336.71,55.28 337.54,53.93 C337.86,53.42 337.71,53.00 337.21,53.00 C336.71,53.00 335.82,51.99 335.22,50.75 C334.67,49.61 334.30,63.57 334.17,79.78 C334.07,58.59 334.31,42.00 334.73,42.00 C335.19,42.00 347.96,53.36 363.11,67.25 C378.27,81.14 391.44,93.14 392.40,93.93 C393.98,95.23 396.87,92.63 424.32,65.30 C440.92,48.77 456.03,34.52 457.90,33.62 C472.24,26.78 485.93,43.49 477.11,57.05 C473.27,62.95 59.43,476.34 55.30,478.40 C51.28,480.41 47.02,480.36 43.27,478.96 C43.69,478.85 44.00,478.50 44.00,478.08 ZM 111.97 479.49 C105.76,479.43 102.29,479.36 102.13,479.30 C101.24,478.95 122.67,456.83 162.12,417.38 L 223.49 356.00 L 343.50 355.97 L 347.48 353.71 C353.09,350.54 356.20,344.84 355.68,338.68 C355.26,333.56 353.15,329.94 348.62,326.56 C345.94,324.56 344.51,324.49 301.43,324.22 C276.99,324.07 257.00,323.61 257.00,323.21 C257.00,322.81 268.37,311.13 282.26,297.24 L 307.51 272.00 L 312.00 272.00 L 312.00 274.57 C312.00,277.88 309.92,279.92 306.89,279.59 C304.90,279.38 304.46,279.82 304.29,282.20 C304.17,283.78 303.45,285.69 302.68,286.46 C301.91,287.23 300.21,287.74 298.89,287.59 C296.90,287.38 296.46,287.82 296.29,290.20 C296.17,291.78 295.45,293.69 294.68,294.46 C293.91,295.23 292.21,295.74 290.89,295.59 C288.90,295.38 288.46,295.82 288.29,298.20 C288.02,301.86 285.95,303.93 282.89,303.59 C280.90,303.38 280.46,303.82 280.29,306.20 C280.02,309.86 277.95,311.93 274.89,311.59 C272.89,311.37 272.46,311.81 272.28,314.27 C272.16,315.89 271.11,318.04 269.94,319.05 C267.98,320.75 267.96,320.90 269.66,321.07 C275.49,321.64 337.52,321.68 342.69,321.12 C350.17,320.30 352.13,321.44 352.29,326.75 C352.32,327.44 352.82,328.03 353.42,328.08 C358.06,328.40 359.95,329.86 359.98,333.13 C360.01,335.43 357.38,337.51 356.61,335.79 C356.11,334.67 356.25,337.07 357.26,346.75 C357.39,347.99 357.87,349.00 358.32,349.00 C358.77,349.00 358.47,349.67 357.64,350.50 C356.82,351.33 355.44,352.00 354.57,352.00 C353.71,352.00 353.00,352.47 353.00,353.04 C353.00,354.59 349.13,358.46 348.35,357.69 C347.98,357.32 347.17,357.44 346.54,357.97 C345.80,358.58 344.47,358.44 342.79,357.57 C340.95,356.61 339.87,356.53 339.12,357.28 C338.37,358.03 337.30,358.00 335.48,357.17 C333.61,356.32 318.00,356.00 278.58,356.00 C222.04,356.00 220.56,356.11 223.04,360.03 C225.40,363.76 223.05,368.05 218.89,367.59 C216.90,367.38 216.46,367.82 216.29,370.20 C216.02,373.86 213.95,375.93 210.89,375.59 C208.90,375.38 208.46,375.82 208.29,378.20 C208.02,381.86 205.95,383.93 202.89,383.59 C200.90,383.38 200.46,383.82 200.29,386.20 C200.02,389.86 197.95,391.93 194.89,391.59 C192.90,391.38 192.46,391.82 192.29,394.20 C192.02,397.86 189.95,399.93 186.89,399.59 C184.90,399.38 184.46,399.82 184.29,402.20 C184.02,405.86 181.95,407.93 178.89,407.59 C176.90,407.38 176.46,407.82 176.29,410.20 C176.02,413.86 173.95,415.93 170.89,415.59 C168.90,415.38 168.46,415.82 168.29,418.20 C168.02,421.87 165.94,423.93 162.84,423.59 C160.96,423.38 160.39,423.80 160.34,425.41 C160.16,431.79 159.99,432.53 159.00,431.00 C158.37,430.03 158.03,429.94 158.02,430.73 C158.01,431.48 156.93,431.84 155.25,431.64 C152.85,431.36 152.47,431.69 152.29,434.20 C152.17,435.78 151.42,437.73 150.61,438.53 C148.82,440.33 147.61,440.46 148.63,438.75 C149.17,437.86 148.91,437.88 147.74,438.84 C146.83,439.57 145.68,439.92 145.18,439.61 C144.69,439.31 144.40,440.15 144.55,441.48 C144.91,444.76 142.00,447.93 138.94,447.60 C136.90,447.38 136.47,447.80 136.29,450.20 C136.17,451.78 135.42,453.73 134.61,454.53 C132.82,456.33 131.61,456.46 132.63,454.75 C133.17,453.86 132.91,453.88 131.74,454.84 C130.83,455.57 129.73,455.95 129.29,455.68 C128.86,455.41 128.40,456.52 128.29,458.13 C128.17,459.75 127.42,461.73 126.61,462.53 C124.82,464.33 123.61,464.46 124.63,462.75 C125.17,461.86 124.91,461.88 123.74,462.84 C122.83,463.57 121.73,463.95 121.29,463.68 C120.86,463.41 120.40,464.52 120.29,466.13 C120.17,467.75 119.42,469.73 118.61,470.53 C116.82,472.33 115.61,472.46 116.63,470.75 C117.21,469.80 117.01,469.80 115.80,470.79 C114.92,471.49 113.63,471.94 112.91,471.79 C111.67,471.51 111.49,472.51 111.85,477.75 ZM 340.77 271.86 C345.73,271.63 346.58,271.03 348.66,269.44 C352.66,266.39 356.00,260.27 356.00,255.99 C356.00,249.31 350.66,242.45 344.19,240.82 L 339.80 239.71 L 371.64 207.86 L 403.49 176.00 L 408.00 176.00 L 408.00 178.57 C408.00,181.88 405.92,183.92 402.89,183.59 C400.90,183.38 400.46,183.82 400.29,186.20 C400.02,189.86 397.95,191.93 394.89,191.59 C392.90,191.38 392.46,191.82 392.29,194.20 C392.02,197.86 389.95,199.93 386.89,199.59 C384.90,199.38 384.46,199.82 384.29,202.20 C384.02,205.86 381.95,207.93 378.89,207.59 C376.90,207.38 376.46,207.82 376.29,210.20 C376.02,213.86 373.95,215.93 370.89,215.59 C368.90,215.38 368.46,215.82 368.29,218.20 C368.02,221.86 365.95,223.93 362.89,223.59 C360.90,223.38 360.46,223.82 360.29,226.20 C360.02,229.86 357.94,231.93 354.89,231.59 C352.73,231.36 352.47,231.75 352.21,235.72 C351.97,239.23 352.42,240.72 354.46,243.14 C355.87,244.81 356.76,246.58 356.45,247.08 C356.14,247.59 356.36,248.00 356.94,248.00 C357.52,248.00 358.00,249.12 358.00,250.50 C358.00,251.88 357.55,253.00 357.00,253.00 C356.45,253.00 356.00,254.38 356.00,256.06 C356.00,257.84 356.42,258.86 357.00,258.50 C357.58,258.14 358.00,259.16 358.00,260.94 C358.00,262.62 357.52,264.00 356.94,264.00 C356.36,264.00 356.16,264.45 356.51,265.01 C357.50,266.62 351.31,272.17 348.75,271.96 C348.06,271.91 345.00,271.87 340.77,271.86 ZM 334.45 120.01 C334.56,123.19 334.71,125.33 334.89,125.98 C335.45,128.00 336.22,128.46 339.04,128.48 C341.44,128.49 342.50,128.96 342.50,130.00 C342.50,130.82 342.95,131.83 343.50,132.23 C344.15,132.71 344.12,132.97 343.42,132.98 C342.82,132.99 342.33,133.60 342.33,134.33 C342.33,135.72 342.55,135.80 347.50,136.21 C352.10,136.59 353.63,140.51 350.43,143.72 C349.15,144.99 349.10,145.45 350.18,146.13 C350.90,146.59 351.05,146.98 350.50,147.00 C349.95,147.02 350.02,147.36 350.66,147.77 C351.53,148.32 351.48,149.00 350.45,150.40 C349.35,151.90 348.77,152.05 347.64,151.11 C345.82,149.61 342.69,152.39 343.43,154.86 C344.14,157.22 341.32,160.72 339.87,159.27 C338.52,157.92 334.73,160.98 335.09,163.14 C335.63,166.41 333.86,168.06 330.49,167.43 C328.69,167.09 326.34,167.28 325.27,167.85 C323.87,168.61 322.60,168.51 320.64,167.49 C318.76,166.51 318.14,166.45 318.61,167.29 C319.11,168.17 318.92,168.16 317.95,167.25 C316.21,165.63 314.67,165.63 315.61,167.25 C316.01,167.94 315.41,167.68 314.27,166.69 C312.51,165.15 312.24,163.90 312.48,158.44 C312.70,153.09 312.48,151.98 311.13,151.88 C310.23,151.82 308.84,151.71 308.03,151.63 C305.85,151.43 303.98,146.92 304.66,143.50 C304.96,141.97 305.19,140.03 305.19,138.99 C306.09,141.40 307.28,143.63 308.88,146.77 C311.24,151.40 322.58,164.00 324.38,164.00 C325.57,164.00 347.00,142.98 347.00,141.82 C347.00,141.46 345.42,140.19 343.49,138.99 C341.56,137.80 338.75,134.73 337.24,132.16 L 334.50 127.50 ZM 161.17 190.34 C160.50,189.62 159.97,188.81 159.98,188.52 C160.09,185.81 159.69,185.14 157.67,184.63 C155.39,184.06 152.64,179.99 152.52,177.00 C152.44,174.95 154.22,173.15 155.74,173.73 C156.46,174.01 156.86,173.96 156.94,173.67 C157.37,178.44 160.05,183.05 164.97,185.91 C168.39,187.89 169.98,187.95 214.60,187.98 L 260.70 188.00 L 264.01 185.75 C268.95,182.39 271.08,179.02 271.70,173.40 C271.79,178.47 271.62,182.78 271.12,183.28 C270.48,183.92 270.43,184.94 271.01,186.02 C271.62,187.16 271.47,188.35 270.54,189.61 C269.37,191.22 268.13,191.44 262.33,191.13 C250.90,190.51 175.94,190.46 168.94,191.07 C164.24,191.48 162.04,191.27 161.17,190.34 ZM 401.00 478.50 C401.68,477.67 402.91,477.00 403.73,477.00 C404.64,477.00 404.99,476.42 404.64,475.50 C404.02,473.88 407.44,473.29 408.41,474.85 C408.69,475.31 410.30,475.73 411.98,475.78 C413.66,475.83 414.79,475.47 414.49,474.98 C414.19,474.50 415.64,473.79 417.72,473.42 C419.80,473.05 422.06,472.29 422.75,471.75 C423.44,471.20 424.00,471.05 424.00,471.41 C424.00,471.77 425.06,471.04 426.35,469.79 C427.90,468.28 428.32,467.25 427.60,466.77 C426.99,466.36 427.85,465.99 429.50,465.95 C432.18,465.87 437.60,464.24 435.76,464.07 C435.35,464.03 436.29,462.76 437.85,461.25 C440.01,459.15 440.65,457.64 440.56,454.83 C440.50,452.81 440.80,451.37 441.22,451.64 C441.65,451.90 442.00,451.39 442.00,450.50 C442.00,449.61 442.44,449.15 442.97,449.48 C444.65,450.52 449.77,444.73 449.59,442.00 C449.37,438.80 451.73,432.92 453.85,431.37 C455.34,430.28 455.27,429.97 453.09,428.08 C451.77,426.94 451.21,425.94 451.85,425.88 C452.48,425.81 453.56,425.69 454.25,425.62 C455.24,425.53 455.55,399.67 455.75,300.75 L 456.00 179.82 L 456.00 304.29 C456.00,311.95 456.00,319.17 456.00,325.97 C456.02,427.20 456.02,437.66 451.96,446.20 C451.22,447.76 450.35,449.25 449.31,451.22 C442.59,464.01 428.91,474.70 414.45,478.47 C411.13,479.33 401.89,479.72 360.03,479.86 C393.65,479.68 400.33,479.30 401.00,478.50 ZM 42.18 478.51 C34.56,475.04 29.46,465.97 33.60,457.70 C34.48,455.94 39.89,449.76 45.63,443.96 L 56.05 433.41 L 56.05 361.85 C56.16,423.39 56.58,423.88 58.02,424.78 C59.66,425.80 59.84,426.43 58.99,428.02 C58.23,429.43 58.24,430.00 59.02,430.00 C59.63,430.00 59.86,430.42 59.54,430.93 C59.23,431.44 59.99,432.00 61.24,432.18 C63.09,432.44 63.52,433.16 63.60,436.15 C63.70,439.48 63.49,439.77 61.17,439.51 C57.53,439.11 52.41,441.01 54.15,442.12 C54.89,442.59 55.05,442.98 54.50,443.00 C53.95,443.02 54.02,443.36 54.66,443.77 C55.53,444.32 55.48,445.00 54.45,446.40 C53.49,447.72 52.67,448.00 51.78,447.34 C51.08,446.81 50.02,446.40 49.43,446.44 C47.95,446.52 44.59,450.00 45.99,450.00 C46.61,450.00 46.86,450.41 46.55,450.91 C46.24,451.42 46.41,451.98 46.92,452.16 C47.44,452.35 47.23,453.35 46.46,454.40 C45.38,455.87 44.75,456.04 43.68,455.15 C42.61,454.26 41.88,454.48 40.40,456.11 C37.12,459.73 37.86,476.44 41.22,474.37 C41.72,474.05 42.05,474.41 41.95,475.15 C41.73,476.76 41.81,477.91 42.18,478.51 ZM 56.78 88.89 C57.38,74.31 58.42,70.13 60.25,66.33 C60.92,64.93 61.70,63.58 62.61,61.78 C67.40,52.26 76.26,43.40 85.78,38.61 C87.90,37.54 89.58,36.65 91.33,35.90 C96.61,33.62 102.47,32.68 122.92,32.29 C112.30,32.56 111.80,33.08 110.94,34.07 C109.96,35.20 108.89,36.10 108.58,36.07 C106.12,35.79 104.98,36.17 105.55,37.07 C105.91,37.66 105.26,37.56 104.10,36.83 C102.95,36.11 102.00,35.22 102.00,34.85 C102.00,34.48 100.68,34.67 99.06,35.28 C97.45,35.89 96.35,36.75 96.62,37.20 C96.89,37.64 96.53,38.03 95.81,38.07 C91.15,38.31 88.52,39.13 86.94,40.84 C85.94,41.91 85.39,43.06 85.73,43.39 C86.06,43.73 85.78,44.00 85.11,44.00 C84.43,44.00 84.20,44.52 84.61,45.17 C85.09,45.95 84.79,46.13 83.73,45.73 C82.85,45.39 81.98,45.56 81.80,46.11 C81.61,46.66 80.69,47.22 79.75,47.36 C78.80,47.50 76.90,48.60 75.51,49.81 C74.12,51.01 72.51,52.00 71.93,52.00 C71.28,52.00 71.02,53.74 71.27,56.46 C71.48,58.91 71.29,60.68 70.83,60.40 C70.37,60.11 70.00,60.57 70.00,61.41 C70.00,62.29 69.42,62.72 68.63,62.41 C66.02,61.41 60.57,68.91 60.30,73.89 C60.20,75.88 59.80,79.19 59.42,81.25 C58.92,83.99 59.08,85.00 60.02,85.00 C60.73,85.00 60.12,86.03 58.66,87.28 ZM 303.97 134.69 C303.05,132.93 301.78,131.55 300.84,131.62 C299.72,131.70 299.41,131.14 299.79,129.71 C300.18,128.22 299.97,127.90 299.00,128.50 C297.97,129.14 297.82,128.49 298.32,125.41 C298.67,123.27 299.41,121.36 299.98,121.17 C300.65,120.95 301.00,105.82 301.00,76.42 L 301.00 32.00 L 301.88 32.00 L 302.23 81.75 C302.46,115.36 302.47,127.40 303.97,134.69 ZM 158.12 269.45 C156.56,268.13 154.99,267.27 154.64,267.53 C154.29,267.79 154.23,267.70 154.50,267.33 C154.78,266.96 154.22,265.76 153.25,264.66 C152.29,263.56 152.06,262.99 152.75,263.39 C153.58,263.88 154.00,263.42 154.00,262.03 C154.00,260.88 154.68,259.68 155.50,259.36 C157.69,258.52 157.37,253.71 155.03,252.25 C153.76,251.46 153.29,250.42 153.70,249.34 C154.18,248.09 153.98,247.88 152.92,248.51 C152.06,249.02 152.19,248.56 153.25,247.34 C154.22,246.24 154.78,245.04 154.50,244.67 C154.23,244.30 154.29,244.21 154.64,244.47 C154.99,244.73 156.53,243.89 158.06,242.61 C160.36,240.67 160.83,240.34 178.19,240.20 C173.20,240.31 169.64,240.56 168.34,240.91 C166.16,241.50 162.90,243.54 160.96,245.54 C157.68,248.93 157.50,249.47 157.50,256.17 L 157.50 263.22 L 162.40 267.66 L 167.04 271.86 L 160.97 271.85 ZM 202.83 156.50 C169.59,156.53 168.07,156.75 165.00,158.55 C159.24,161.94 156.54,167.70 156.91,173.29 C156.76,172.83 156.28,172.13 155.46,171.31 C154.61,170.46 154.08,169.26 154.29,168.64 C154.49,168.02 154.08,166.94 153.37,166.22 C151.20,164.06 153.68,160.00 157.16,160.00 C158.92,160.00 160.00,159.47 160.00,158.61 C160.00,156.37 163.52,152.66 165.80,152.50 C166.96,152.41 167.64,152.77 167.31,153.30 C166.99,153.83 167.35,154.04 168.11,153.78 C168.87,153.51 170.05,154.24 170.71,155.40 C171.74,157.18 171.93,157.23 171.96,155.75 C172.01,153.71 174.27,153.45 176.18,155.25 C176.87,155.90 188.48,156.32 202.83,156.50 ZM 182.33 271.90 L 190.08 271.80 C215.10,271.47 215.37,271.41 220.44,264.61 C223.33,260.74 223.33,251.26 220.44,247.39 C215.45,240.70 214.80,240.53 192.55,240.18 C191.29,240.16 190.04,240.14 188.84,240.13 L 190.83 240.12 C214.65,240.01 221.11,240.25 222.17,241.31 C224.13,243.28 223.91,269.80 221.92,271.09 C221.13,271.60 207.16,271.97 190.74,271.93 ZM 271.46 166.56 C271.09,165.61 270.49,164.71 269.57,163.51 C268.44,162.02 267.61,160.84 266.56,159.92 C263.36,157.10 258.10,156.60 235.71,156.52 C249.32,156.35 259.81,155.95 259.57,155.31 C258.96,153.73 260.19,153.42 265.42,153.84 C269.42,154.16 269.86,154.46 270.49,157.34 C270.91,159.29 271.24,162.77 271.46,166.56 Z" fill="rgb(3,3,3)"/>
<path d="M 0.00 256.00 L 0.00 0.00 L 256.00 0.00 L 512.00 0.00 L 512.00 256.00 L 512.00 512.00 L 256.00 512.00 L 0.00 512.00 L 0.00 256.00 ZM 55.30 478.40 C59.43,476.34 473.27,62.95 477.11,57.05 C485.93,43.49 472.24,26.78 457.90,33.62 C456.03,34.52 440.92,48.77 424.32,65.30 C396.87,92.63 393.98,95.23 392.40,93.93 C391.44,93.14 378.27,81.14 363.11,67.25 C347.96,53.36 335.19,42.00 334.73,42.00 C334.27,42.00 334.04,61.24 334.20,84.75 L 334.50 127.50 L 337.24 132.16 C338.75,134.73 341.56,137.80 343.49,138.99 C345.42,140.19 347.00,141.46 347.00,141.82 C347.00,142.98 325.57,164.00 324.38,164.00 C322.58,164.00 311.24,151.40 308.88,146.77 C302.39,134.04 302.61,136.17 302.23,81.75 L 301.88 32.00 L 203.69 32.01 C94.92,32.03 99.34,31.78 85.78,38.61 C76.26,43.40 67.40,52.26 62.61,61.78 C55.57,75.75 56.01,62.65 56.04,257.46 L 56.05 433.41 L 45.63 443.96 C39.89,449.76 34.48,455.94 33.60,457.70 C27.29,470.32 42.47,484.80 55.30,478.40 ZM 414.45 478.47 C428.91,474.70 442.59,464.01 449.31,451.22 C456.40,437.73 456.00,446.56 456.00,304.29 L 456.00 176.00 L 429.74 176.00 L 403.49 176.00 L 371.64 207.86 L 339.80 239.71 L 344.19 240.82 C350.66,242.45 356.00,249.31 356.00,255.99 C356.00,260.27 352.66,266.39 348.66,269.44 C345.34,271.98 345.14,272.00 326.41,272.00 L 307.51 272.00 L 282.26 297.24 C268.37,311.13 257.00,322.81 257.00,323.21 C257.00,323.61 276.99,324.07 301.43,324.22 C344.51,324.49 345.94,324.56 348.62,326.56 C353.15,329.94 355.26,333.56 355.68,338.68 C356.20,344.84 353.09,350.54 347.48,353.71 L 343.50 355.97 L 283.50 355.98 L 223.49 356.00 L 162.12 417.38 C122.67,456.83 101.24,478.95 102.13,479.30 C102.88,479.60 172.14,479.88 256.04,479.92 C389.84,479.99 409.30,479.81 414.45,478.47 ZM 162.40 267.66 L 157.50 263.22 L 157.50 256.17 C157.50,249.47 157.68,248.93 160.96,245.54 C162.90,243.54 166.16,241.50 168.34,240.91 C170.68,240.28 180.40,239.98 192.55,240.18 C214.80,240.53 215.45,240.70 220.44,247.39 C223.33,251.26 223.33,260.74 220.44,264.61 C215.37,271.41 215.10,271.47 190.08,271.80 L 167.31 272.10 L 162.40 267.66 ZM 164.97 185.91 C154.16,179.63 154.18,164.91 165.00,158.55 C168.39,156.56 169.90,156.50 214.50,156.50 C265.79,156.50 264.06,156.28 269.57,163.51 C271.92,166.58 272.19,167.70 271.79,172.55 C271.28,178.69 269.20,182.22 264.01,185.75 L 260.70 188.00 L 214.60 187.98 C169.98,187.95 168.39,187.89 164.97,185.91 Z" fill="rgb(254,254,254)"/>
</g>
</svg>